<?xml version="1.0" encoding="UTF-8"?>
<!DOCTYPE svg PUBLIC "-//W3C//DTD SVG 1.1//EN" "http://www.w3.org/Graphics/SVG/1.1/DTD/svg11.dtd">
<!-- Creator: CorelDRAW -->
<svg xmlns="http://www.w3.org/2000/svg" xml:space="preserve" width="210mm" height="297mm" version="1.1" style="shape-rendering:geometricPrecision; text-rendering:geometricPrecision; image-rendering:optimizeQuality; fill-rule:evenodd; clip-rule:evenodd"
viewBox="0 0 21000 4603.41"
 xmlns:xlink="http://www.w3.org/1999/xlink"
 xmlns:xodm="http://www.corel.com/coreldraw/odm/2003">
 <defs>
  <style type="text/css">
   <![CDATA[
    .fil0 {fill:#FFF8F2}
   ]]>
  </style>
 </defs>
 <g id="Camada_x0020_1">
  <metadata id="CorelCorpID_0Corel-Layer"/>
  <path class="fil0" d="M2092.08 3790.35l556.4 0c459.63,0 835.72,-376.09 835.72,-835.72 0,-268.11 -8.95,-547.01 -263.55,-808.16 -157.21,-161.3 -368.72,-255.11 -595.33,-251.08l-1135.49 20.37c-277.07,-16.34 -481.72,223.69 -476.91,490.66 4.22,237.57 175.31,453.01 412.94,473.7l1216.74 -21c830.76,-14.32 649.57,799.07 0.57,799.07l-551.08 0c-674.12,0 -1229.26,-537.1 -1258.72,-1204.27 0,-413.7 362.1,-721.85 763.77,-721.85 413.83,0 649.17,1.45 1062.89,1.45 250.68,0 483.46,-186.98 483.46,-449.78 0,-261.05 -230.9,-449.86 -483.46,-449.86l-19.45 0c-259.08,0 -339.63,0.57 -598.84,0.94 -912.89,32.93 -1379.64,784.39 -1340.22,1628.45 34.63,740.65 651.97,1327.07 1390.56,1327.07zm9697.25 -2107.98l0 1.01 -15.2 0 318.76 376.4 0 108.7 -328.17 0 -407.19 -485.1 5.17 0 -426.64 1.01 0 484.09 -317.94 0 0 -1474.77 1171.21 0c56.07,0 107,13.63 152.78,41.01 45.8,27.38 82.78,64.28 110.77,110.77 28.01,46.49 42.08,97.08 42.08,151.79l0 381.53c0,54.68 -14.07,105.27 -42.08,151.77 -27.99,46.49 -64.97,83.39 -110.77,110.77 -45.78,27.32 -96.71,41.01 -152.78,41.01zm-5318.82 486.11c-56.09,0 -106.99,-13.69 -152.8,-40.99 -45.8,-27.38 -82.38,-63.97 -109.77,-109.77 -27.32,-45.8 -40.99,-96.71 -40.99,-152.8l0 -869.74c0,-56.01 13.67,-106.97 40.99,-152.78 27.38,-45.8 63.97,-82.38 109.77,-109.77 45.8,-27.32 96.7,-41.01 152.8,-41.01l867.64 0c56.09,0 106.99,13.69 152.8,41.01 45.8,27.38 82.76,63.97 110.78,109.77 28.01,45.8 42.08,96.77 42.08,152.78l0 139.48 -322.06 0 0 -123.02c0,0 0,0 0,0 0,0 0,0 0,0l-836.85 0c0,0 0,0 0,0 0,0 0,0 0,0l0 836.87c0,0 0,0 0,0 0,0 0,0 0,0l836.85 0c0,0 0,0 0,0 0,0 0,0 0,0l0 -221.55 -320.02 0 0 -319.96 642.07 0 0 557.91c0,56.09 -14.07,106.99 -42.08,152.8 -28.01,45.8 -64.97,82.38 -110.78,109.77 -45.8,27.3 -96.7,40.99 -152.8,40.99l-867.64 0zm50.72 1482.98c-71.42,0 -133.62,-14.76 -186.54,-44.48 -52.98,-29.46 -94,-71.17 -123.27,-124.84 -29.27,-53.61 -43.76,-117.01 -43.76,-190.01 -0.69,-73 13.36,-136.39 42.63,-190.01 29.27,-53.68 70.48,-95.38 123.9,-125.1 53.23,-29.46 115.63,-44.23 187.05,-44.23 73.73,0 136.56,14.51 188.87,43.78 52.29,29.21 92.86,70.73 121.61,124.34 28.83,53.68 43.09,117.52 43.09,191.21 0.69,73 -13.38,136.39 -42.65,190.51 -29.19,54.12 -70.2,95.82 -123.19,125.03 -53,29.27 -115.65,43.78 -187.74,43.78zm0 -112.88c71.4,0 126.92,-21.63 166.53,-65.16 39.38,-43.32 59.18,-103.7 59.18,-181.29 0,-78.29 -19.8,-138.92 -59.18,-181.99 -39.61,-43.03 -95.13,-64.49 -166.53,-64.49 -70.73,0 -125.98,21.65 -165.86,64.99 -39.86,43.51 -59.85,103.89 -59.85,181.48 0,77.59 19.99,137.97 59.85,181.29 39.88,43.53 95.13,65.16 165.86,65.16zm625.97 375.48l0 -833.83 -66.74 0 0 -133.62 138.16 0 0 105.99 48.38 0c23.02,-39.19 54.62,-68.88 94.44,-89.4 39.86,-20.24 87.55,-30.41 142.82,-30.41 69.76,0 129,14.51 177.39,43.78 48.32,29.21 85.41,70.73 111.22,124.34 25.56,53.68 38.47,117.52 38.47,191.21 0,73.69 -12.66,137.53 -38.03,191.2 -25.31,53.61 -61.45,95.13 -108.7,124.34 -47.19,29.27 -103.64,43.78 -168.8,43.78 -54.64,0 -102.08,-11.05 -142.82,-32.93 -40.82,-21.65 -71.42,-52.75 -92.17,-92.61l-4.62 0 0 388.14 -129 0zm337.51 -373.19c69.07,0 122.74,-21.84 160.73,-65.62 38.03,-43.76 56.89,-104.83 56.89,-183.12 0,-78.29 -18.86,-139.36 -56.89,-183.14 -37.99,-43.76 -91.66,-65.6 -160.73,-65.6 -62.9,0 -113.57,17.91 -151.35,54.14 -38.03,36.14 -57.16,84.02 -57.16,143.96l0 101.3c0,59.93 19.13,107.81 57.16,143.95 37.78,36.23 88.45,54.14 151.35,54.14zm902.39 110.59c-72.09,0 -134.74,-14.76 -187.72,-44.48 -53,-29.46 -93.74,-71.42 -122.51,-125.98 -28.83,-54.58 -43.34,-118.17 -43.34,-191.2 0,-73 14.51,-136.08 43.34,-189.57 28.77,-53.17 69.07,-94.44 121.38,-123.65 52.29,-29.27 113.29,-43.78 183.12,-43.78 66.74,0 124.59,13.38 173.42,40.32 48.57,26.94 86.35,64.97 113.3,113.99 27.01,49.08 40.32,107.56 40.32,175.06l0 51.85 -550.47 0c3.91,72.11 26,128.31 66.3,168.63 40.32,40.32 94.25,60.56 161.74,60.56 46.75,0 86.37,-9.91 118.61,-29.46 32.24,-19.61 54.56,-48.38 66.8,-86.88l131.27 0c-16.78,71.42 -53.17,126.67 -108.7,165.86 -55.76,39.16 -124.64,58.74 -206.85,58.74zm-224.57 -431.89l421.53 0c-6.26,-56.89 -26.94,-100.86 -62.64,-132.47 -35.7,-31.54 -82.95,-47.19 -141.25,-47.19 -57.6,0 -105.48,15.64 -143.95,47.19 -38.49,31.61 -62.89,75.58 -73.69,132.47zm817.19 418.07l0 -557.4 -66.74 0 0 -133.62 138.14 0 0 105.99 48.38 0c23.73,-38.49 56.47,-67.75 97.9,-88.26 41.45,-20.24 90.28,-30.41 146.31,-30.41 89.12,0 159.35,25.56 210.76,76.46 51.34,51.16 77.15,119.36 77.15,204.58l0 422.67 -129 0 0 -400.79c0,-62.18 -16.59,-109.43 -49.96,-141.67 -33.45,-32.24 -82.53,-48.38 -147,-48.38 -63.78,0 -112.41,16.15 -146.22,48.38 -33.87,32.24 -50.72,79.49 -50.72,141.67l0 400.79 -129 0zm1537.09 13.82c-96.08,0 -171.65,-20.08 -226.93,-59.87 -55.25,-39.88 -85.66,-95.63 -90.95,-166.99l127.81 0c5.29,42.15 23.71,73.25 55.31,93.24 31.54,20.05 77.85,29.97 139.36,29.97 107.56,0 161.24,-33.87 161.24,-101.37 0,-27.64 -8.32,-49.01 -24.67,-64.03 -16.59,-14.95 -44.46,-25.81 -83.64,-32.68l-150.82 -27.64c-128.31,-23.73 -192.34,-84.78 -192.34,-183.14 0,-63.84 24.15,-114.05 72.53,-150.88 48.38,-36.83 114.49,-55.27 198.09,-55.27 86.86,0 155.74,18.88 206.85,56.41 50.9,37.59 79.93,90.53 86.86,158.97l-125.54 0c-7.62,-38.49 -25.6,-66.8 -53.42,-85.22 -28.14,-18.44 -67.49,-27.64 -118.23,-27.64 -46.75,0 -83.14,8.06 -108.67,24.15 -25.81,16.15 -38.68,39.63 -38.68,70.29 0,23.71 8.27,42.38 24.86,55.69 16.34,13.63 43.07,23.79 79.93,30.66l150.89 28.77c67.45,12.24 116.97,34.13 148.57,65.67 31.54,31.54 47.19,73.75 47.19,126.67 0,67.49 -24.61,120.25 -73.69,157.84 -49.08,37.53 -119.8,56.41 -211.89,56.41zm829.79 0c-71.42,0 -133.62,-14.76 -186.54,-44.48 -52.98,-29.46 -94,-71.17 -123.27,-124.84 -29.25,-53.61 -43.76,-117.01 -43.76,-190.01 -0.69,-73 13.36,-136.39 42.63,-190.01 29.27,-53.68 70.48,-95.38 123.9,-125.1 53.24,-29.46 115.63,-44.23 187.05,-44.23 73.75,0 136.56,14.51 188.87,43.78 52.29,29.21 92.86,70.73 121.61,124.34 28.83,53.68 43.09,117.52 43.09,191.21 0.69,73 -13.38,136.39 -42.65,190.51 -29.19,54.12 -70.2,95.82 -123.19,125.03 -53,29.27 -115.65,43.78 -187.74,43.78zm0 -112.88c71.4,0 126.92,-21.63 166.53,-65.16 39.38,-43.32 59.18,-103.7 59.18,-181.29 0,-78.29 -19.8,-138.92 -59.18,-181.99 -39.61,-43.03 -95.13,-64.49 -166.53,-64.49 -70.73,0 -125.98,21.65 -165.86,64.99 -39.86,43.51 -59.85,103.89 -59.85,181.48 0,77.59 19.99,137.97 59.85,181.29 39.88,43.53 95.13,65.16 165.86,65.16zm877.04 111.74c-89.12,0 -158.91,-24.93 -209.56,-74.44 -50.72,-49.52 -76.02,-116.07 -76.02,-199.67l0 -429.6 129 0 0 401.98c0,62.12 16.09,109.12 48.32,140.91 32.23,32.05 79.04,47.94 140.55,47.94 65.16,0 115.82,-16.59 151.54,-50.21 35.7,-33.18 53.42,-79.93 53.42,-139.86l0 -400.76 129 0 0 557.4 66.8 0 0 133.62 -138.2 0 0 -105.99 -48.38 0c-24.61,38.47 -57.54,67.75 -99.06,88.01 -41.43,20.5 -90.51,30.66 -147.42,30.66zm696.26 -12.68l0 -557.4 -66.8 0 0 -133.62 138.22 0 0 129 48.38 0c19.11,-42.13 49.08,-75.31 89.38,-99.04 40.32,-23.71 87.51,-35.7 142.13,-35.7l56.41 0 0 110.52 -63.34 0c-69.09,0 -122.51,20.31 -160.1,61.07 -37.55,40.74 -56.41,95.57 -56.41,164.7l0 360.47 -127.87 0zm896.74 13.82c-69.85,0 -130.85,-14.76 -183.14,-44.48 -52.29,-29.46 -92.61,-71.17 -121.38,-124.84 -28.81,-53.61 -43.32,-117.01 -43.32,-190.01 0,-73 14.26,-136.39 42.63,-190.01 28.33,-53.68 68.65,-95.38 120.94,-125.1 52.23,-29.46 113.55,-44.23 184.27,-44.23 84.52,0 154.98,20.96 211.45,62.64 56.39,41.96 93.24,102.08 110.96,180.37l-130.14 0c-13.12,-44.48 -35.47,-77.41 -67.26,-98.62 -31.98,-20.94 -73.67,-31.54 -125.01,-31.54 -68.46,0 -121.88,21.46 -160.57,64.49 -38.91,43.07 -58.27,103.7 -58.27,181.99 0,77.59 19.36,137.97 58.27,181.29 38.68,43.53 92.11,65.16 160.57,65.16 106.6,0 172.26,-47.23 196.88,-141.67l130.14 0c-16.78,82.26 -53.61,145.15 -110.52,188.85 -56.89,43.79 -129,65.69 -216.49,65.69zm848.27 0c-72.11,0 -134.76,-14.76 -187.74,-44.48 -52.98,-29.46 -93.74,-71.42 -122.51,-125.98 -28.81,-54.58 -43.32,-118.17 -43.32,-191.2 0,-73 14.51,-136.08 43.32,-189.57 28.77,-53.17 69.09,-94.44 121.38,-123.65 52.29,-29.27 113.3,-43.78 183.14,-43.78 66.74,0 124.57,13.38 173.42,40.32 48.57,26.94 86.35,64.97 113.29,113.99 26.99,49.08 40.3,107.56 40.3,175.06l0 51.85 -550.45 0c3.91,72.11 25.98,128.31 66.3,168.63 40.3,40.32 94.25,60.56 161.74,60.56 46.75,0 86.35,-9.91 118.59,-29.46 32.23,-19.61 54.58,-48.38 66.82,-86.88l131.27 0c-16.78,71.42 -53.17,126.67 -108.7,165.86 -55.78,39.16 -124.66,58.74 -206.85,58.74zm-224.57 -431.89l421.51 0c-6.24,-56.89 -26.92,-100.86 -62.64,-132.47 -35.7,-31.54 -82.95,-47.19 -141.23,-47.19 -57.6,0 -105.48,15.64 -143.98,47.19 -38.47,31.61 -62.9,75.58 -73.67,132.47zm-6049.89 -1051.09l0 -1173.29c0,-56.01 13.67,-106.97 40.99,-152.78 27.38,-45.8 63.97,-82.38 109.77,-109.77 45.8,-27.32 96.7,-41.01 152.8,-41.01l867.64 0c56.09,0 107,13.69 152.8,41.01 45.8,27.38 82.76,63.97 110.77,109.77 28.01,45.8 42.08,96.77 42.08,152.78l0 1173.29 -322.06 0 0 -475.84 -836.85 0 0 475.84 -317.94 0zm317.94 -795.86l836.85 0 0 -360.97c0,0 0,0 0,0 0,0 0,0 0,0l-836.85 0c0,0 0,0 0,0 0,0 0,0 0,0l0 360.97zm2227.66 -10.21l836.87 0c0,0 0,0 0,0 0,0 0,0 0,0l0 -350.76c0,0 0,0 0,0 0,0 0,0 0,0l-836.87 0c0,0 0,0 0,0 0,0 0,0 0,0l0 350.76c0,0 0,0 0,0 0,0 0,0 0,0zm1895.33 806.06l0 -1173.29c0,-56.01 13.69,-106.97 41.01,-152.78 27.38,-45.8 63.97,-82.38 109.77,-109.77 45.8,-27.32 96.7,-41.01 152.8,-41.01l867.64 0c56.09,0 106.99,13.69 152.8,41.01 45.8,27.38 82.76,63.97 110.78,109.77 28.01,45.8 42.06,96.77 42.06,152.78l0 1173.29 -322.04 0 0 -475.84 -836.87 0 0 475.84 -317.94 0zm317.94 -795.86l836.87 0 0 -360.97c0,0 0,0 0,0 0,0 0,0 0,0l-836.87 0c0,0 0,0 0,0 0,0 0,0 0,0l0 360.97zm2213.3 795.86c-56.09,0 -107,-13.69 -152.8,-40.99 -45.8,-27.38 -82.38,-63.97 -109.77,-109.77 -27.3,-45.8 -40.99,-96.71 -40.99,-152.8l0 -869.74c0,-56.01 13.69,-106.97 40.99,-152.78 27.38,-45.8 63.97,-82.38 109.77,-109.77 45.8,-27.32 96.71,-41.01 152.8,-41.01l867.66 0c56.07,0 106.97,13.69 152.77,41.01 45.8,27.38 82.76,63.97 110.77,109.77 28.01,45.8 42.08,96.77 42.08,152.78l0 139.48 -322.03 0 0 -123.02c0,0 0,0 0,0 0,0 0,0 0,0l-836.87 0c0,0 0,0 0,0 0,0 0,0 0,0l0 836.87c0,0 0,0 0,0 0,0 0,0 0,0l836.87 0c0,0 0,0 0,0 0,0 0,0 0,0l0 -221.55 -320.04 0 0 -319.96 642.07 0 0 557.91c0,56.09 -14.07,106.99 -42.08,152.8 -28.01,45.8 -64.97,82.38 -110.77,109.77 -45.8,27.3 -96.7,40.99 -152.77,40.99l-867.66 0zm1919.95 0l0 -1476.85 1363.99 0 0 320.02 -1041.96 0 0 258.41 838.89 0 0 320.02 -838.89 0 0 258.45 1041.96 0 0 319.96 -1363.99 0zm2045.11 0l0 -1476.85 328.15 0 500.51 596.9 498.41 -596.9 330.25 0 0 1476.85 -319.96 0 0 -990.72 -508.7 607.17 -510.72 -605.09 0 988.64 -317.94 0zm-17040.93 -2167.35c1271.13,0 2301.66,1030.53 2301.66,2301.66 0,1271.26 -1030.53,2301.73 -2301.66,2301.73 -1271.26,0 -2301.73,-1030.47 -2301.73,-2301.73 0,-1271.13 1030.47,-2301.66 2301.73,-2301.66zm0 142.44c1192.46,0 2159.22,966.76 2159.22,2159.22 0,1192.53 -966.76,2159.28 -2159.22,2159.28 -1192.53,0 -2159.28,-966.76 -2159.28,-2159.28 0,-1192.46 966.76,-2159.22 2159.28,-2159.22zm-806.9 1967.76c157.84,0 285.7,127.93 285.7,285.7 0,157.84 -127.87,285.77 -285.7,285.77 -157.84,0 -285.77,-127.93 -285.77,-285.77 0,-157.77 127.93,-285.7 285.77,-285.7zm1173.67 -1116.28c157.84,0 285.77,127.93 285.77,285.7 0,157.84 -127.93,285.77 -285.77,285.77 -157.77,0 -285.7,-127.93 -285.7,-285.77 0,-157.77 127.93,-285.7 285.7,-285.7z"/>
 </g>
</svg>
