<?xml version="1.0" encoding="UTF-8"?>
<!DOCTYPE svg PUBLIC "-//W3C//DTD SVG 1.1//EN" "http://www.w3.org/Graphics/SVG/1.1/DTD/svg11.dtd">
<!-- Creator: CorelDRAW -->
<svg xmlns="http://www.w3.org/2000/svg" xml:space="preserve" width="210mm" height="297mm" version="1.1" style="shape-rendering:geometricPrecision; text-rendering:geometricPrecision; image-rendering:optimizeQuality; fill-rule:evenodd; clip-rule:evenodd"
viewBox="0 0 21000 14122.29"
 xmlns:xlink="http://www.w3.org/1999/xlink"
 xmlns:xodm="http://www.corel.com/coreldraw/odm/2003">
 <defs>
  <style type="text/css">
   <![CDATA[
    .fil0 {fill:url(#id0)}
   ]]>
  </style>
  <linearGradient id="id0" gradientUnits="userSpaceOnUse" x1="5248.78" y1="13787.8" x2="15721.27" y2="336.8">
   <stop offset="0" style="stop-opacity:1; stop-color:#EA348B"/>
   <stop offset="1" style="stop-opacity:1; stop-color:#D93030"/>
  </linearGradient>
 </defs>
 <g id="Camada_x0020_1">
  <metadata id="CorelCorpID_0Corel-Layer"/>
  <path class="fil0" d="M415.19 11649.58c-79.48,0 -151.64,-19.38 -216.53,-58.11 -64.91,-38.79 -116.76,-90.66 -155.57,-155.55 -38.7,-64.91 -58.11,-137.07 -58.11,-216.53l0 -1232.6c0,-79.38 19.4,-151.62 58.11,-216.53 38.81,-64.89 90.66,-116.76 155.57,-155.55 64.89,-38.72 137.05,-58.11 216.53,-58.11l1229.63 0c79.46,0 151.62,19.38 216.51,58.11 64.91,38.79 117.31,90.66 157,155.55 39.69,64.91 59.64,137.15 59.64,216.53l0 197.67 -456.39 0 0 -174.34c0,0 0,0 0,0 0,0 0,0 0,0l-1186.02 0c0,0 0,0 0,0 0,0 0,0 0,0l0 1186.02c0,0 0,0 0,0 0,0 0,0 0,0l1186.02 0c0,0 0,0 0,0 0,0 0,0 0,0l0 -313.99 -453.54 0 0 -453.43 909.93 0 0 790.67c0,79.46 -19.95,151.62 -59.64,216.53 -39.69,64.89 -92.09,116.76 -157,155.55 -64.89,38.72 -137.05,58.11 -216.51,58.11l-1229.63 0zm6895.37 -687.39l30.58 0 577 687.39 465.07 0 0 -154.03 -453.54 -535.52 0 0.71 23.33 -0.08c79.48,0 151.62,-19.4 216.53,-58.11 64.91,-38.81 117.28,-91.1 157,-157 39.69,-65.88 59.62,-137.59 59.62,-215.1l0 -540.69c0,-77.51 -19.93,-149.2 -59.62,-215.1 -39.71,-65.9 -92.09,-118.19 -157,-157 -64.91,-38.79 -137.05,-58.11 -216.53,-58.11l-1659.84 0 0 2090.02 450.6 0 0 -686.07 566.81 -1.32zm3175.37 -3581.53l1388.75 0c1147.29,0 2085.93,-938.62 2085.93,-2085.91 0,-669.16 -22.18,-1365.44 -657.74,-2017.34 -392.39,-402.49 -920.39,-636.8 -1486.02,-626.7l-2834.12 50.86c-691.7,-40.68 -1202.38,558.41 -1190.47,1224.53 10.63,593.19 437.51,1130.85 1030.62,1182.62l3037.23 -52.48c2073.58,-35.76 1621.22,1994.54 1.43,1994.54l-1375.6 0c-1682.46,0 -3068.27,-1340.66 -3141.66,-3005.94 0,-1032.59 903.76,-1801.8 1906.21,-1801.8 1032.86,0 1620.4,3.57 2652.99,3.57 625.82,0 1206.83,-466.68 1206.83,-1122.7 0,-651.48 -576.28,-1122.7 -1206.83,-1122.7l-48.36 0c-646.82,0.08 -847.79,1.51 -1494.8,2.5 -2278.67,82.07 -3443.75,1957.7 -3345.32,4064.55 86.54,1848.65 1627.37,3312.41 3470.94,3312.41zm-1528.15 -4190.97c393.9,0 713.24,319.26 713.24,713.24 0,393.92 -319.35,713.24 -713.24,713.24 -393.9,0 -713.16,-319.33 -713.16,-713.24 0,-393.98 319.26,-713.24 713.16,-713.24zm2929.61 -2786.28c393.9,0 713.33,319.35 713.33,713.24 0,393.9 -319.43,713.24 -713.33,713.24 -393.92,0 -713.24,-319.35 -713.24,-713.24 0,-393.9 319.33,-713.24 713.24,-713.24zm4425.2 13347.83c-102.19,0 -190.97,-20.92 -266.07,-63.02 -75.1,-41.75 -132.85,-101.2 -173.61,-178.54 -40.87,-77.32 -61.42,-167.45 -61.42,-270.98 0,-103.42 20.56,-192.82 61.42,-268.65 40.76,-75.35 97.88,-133.83 172.01,-175.22 74.11,-41.48 160.57,-62.03 259.52,-62.03 94.58,0 176.57,18.94 245.76,57.12 68.84,38.18 122.41,92.08 160.57,161.55 38.26,69.55 57.14,152.42 57.14,248.09l0 73.48 -780.13 0c5.54,102.19 36.83,181.84 93.98,238.98 57.12,57.12 133.56,85.83 229.21,85.83 66.25,0 122.39,-14.05 168.08,-41.75 45.67,-27.8 77.32,-68.59 94.67,-123.12l186.04 0c-23.77,101.2 -75.37,179.53 -154.03,235.05 -79.02,55.5 -176.65,83.22 -293.14,83.22zm-318.28 -612.05l597.39 0c-8.86,-80.64 -38.18,-142.95 -88.79,-187.74 -50.59,-44.71 -117.56,-66.86 -200.17,-66.86 -81.61,0 -149.48,22.16 -204.01,66.86 -54.54,44.79 -89.12,107.1 -104.41,187.74zm-883.91 612.05c-98.97,0 -185.43,-20.92 -259.54,-63.02 -74.11,-41.75 -131.23,-100.84 -172.01,-176.92 -40.84,-76 -61.4,-165.84 -61.4,-269.28 0,-103.45 20.2,-193.28 60.42,-269.28 40.15,-76.08 97.27,-135.18 171.38,-177.28 74.03,-41.75 160.92,-62.66 261.16,-62.66 119.81,0 219.66,29.67 299.67,88.77 79.93,59.45 132.13,144.65 157.25,255.61l-184.42 0c-18.61,-63.04 -50.25,-109.7 -95.3,-139.73 -45.34,-29.69 -104.43,-44.71 -177.2,-44.71 -97,0 -172.73,30.39 -227.53,91.37 -55.17,61.07 -82.59,146.98 -82.59,257.92 0,109.96 27.43,195.51 82.59,256.93 54.81,61.7 130.54,92.36 227.53,92.36 151.09,0 244.15,-66.97 279.03,-200.8l184.42 0c-23.77,116.59 -75.98,205.72 -156.62,267.67 -80.64,62.06 -182.83,93.07 -306.83,93.07zm-1270.86 -19.57l0 -789.96 -94.67 0 0 -189.36 195.89 0 0 182.83 68.57 0c27.09,-59.72 69.55,-106.74 126.67,-140.36 57.14,-33.6 124,-50.59 201.43,-50.59l79.93 0 0 156.62 -89.75 0c-97.9,0 -173.63,28.79 -226.9,86.54 -53.19,57.77 -79.93,135.45 -79.93,233.44l0 510.85 -181.23 0zm-986.73 17.95c-126.31,0 -225.18,-35.3 -296.98,-105.48 -71.88,-70.18 -107.73,-164.49 -107.73,-282.95l0 -608.83 182.83 0 0 569.67c0,88.05 22.81,154.67 68.48,199.73 45.7,45.4 112.01,67.94 199.18,67.94 92.36,0 164.14,-23.5 214.75,-71.17 50.61,-47.02 75.73,-113.25 75.73,-198.2l0 -567.97 182.83 0 0 789.96 94.67 0 0 189.36 -195.87 0 0 -150.19 -68.59 0c-34.86,54.52 -81.52,96.01 -140.34,124.7 -58.74,29.06 -128.29,43.45 -208.95,43.45zm-1242.95 1.62c-101.2,0 -189.34,-20.92 -264.35,-63.02 -75.1,-41.75 -133.22,-100.84 -174.7,-176.92 -41.48,-76 -62.03,-165.84 -62.03,-269.28 -0.99,-103.45 18.94,-193.28 60.44,-269.28 41.48,-76.08 99.86,-135.18 175.58,-177.28 75.45,-41.75 163.86,-62.66 265.06,-62.66 104.52,0 193.56,20.56 267.67,62.03 74.13,41.39 131.61,100.23 172.37,176.21 40.87,76.08 61.07,166.55 61.07,270.98 0.99,103.45 -18.94,193.28 -60.44,270 -41.39,76.69 -99.5,135.79 -174.59,177.2 -75.1,41.47 -163.88,62.03 -266.07,62.03zm0 -159.94c101.22,0 179.89,-30.66 236.02,-92.36 55.8,-61.42 83.87,-146.98 83.87,-256.93 0,-110.94 -28.08,-196.85 -83.87,-257.92 -56.13,-60.98 -134.8,-91.37 -236.02,-91.37 -100.21,0 -178.52,30.66 -235.03,92.08 -56.49,61.68 -84.84,147.25 -84.84,257.21 0,109.96 28.35,195.51 84.84,256.93 56.51,61.7 134.82,92.36 235.03,92.36zm-1175.98 159.94c-136.16,0 -243.26,-28.43 -321.57,-84.84 -78.33,-56.51 -121.42,-135.53 -128.92,-236.65l181.12 0c7.5,59.72 33.62,103.8 78.39,132.13 44.71,28.43 110.33,42.46 197.51,42.46 152.42,0 228.5,-48.01 228.5,-143.66 0,-39.17 -11.8,-69.47 -34.94,-90.74 -23.52,-21.19 -63.04,-36.56 -118.57,-46.3l-213.76 -39.16c-181.84,-33.62 -272.58,-120.16 -272.58,-259.54 0,-90.47 34.25,-161.64 102.82,-213.84 68.57,-52.21 162.27,-78.31 280.73,-78.31 123.1,0 220.73,26.73 293.14,79.93 72.16,53.28 113.27,128.29 123.1,225.29l-177.91 0c-10.82,-54.54 -36.29,-94.67 -75.7,-120.79 -39.88,-26.1 -95.68,-39.14 -167.54,-39.14 -66.25,0 -117.85,11.44 -154.06,34.23 -36.56,22.89 -54.79,56.15 -54.79,99.6 0,33.62 11.7,60.08 35.22,78.94 23.16,19.32 61.07,33.7 113.27,43.45l213.84 40.76c95.57,17.35 165.75,48.36 210.55,93.07 44.71,44.71 66.86,104.52 66.86,179.53 0,95.66 -34.86,170.39 -104.41,223.67 -69.55,53.19 -169.78,79.93 -300.3,79.93zm-2178.37 -19.57l0 -789.96 -94.58 0 0 -189.36 195.8 0 0 150.19 68.57 0c33.62,-54.54 80.01,-96.01 138.75,-125.08 58.74,-28.69 127.93,-43.09 207.33,-43.09 126.32,0 225.81,36.23 298.68,108.36 72.77,72.51 109.35,169.15 109.35,289.93l0 599 -182.83 0 0 -567.97c0,-88.16 -23.52,-155.13 -70.81,-200.8 -47.4,-45.7 -116.95,-68.57 -208.32,-68.57 -90.38,0 -159.31,22.87 -207.23,68.57 -48.01,45.67 -71.88,112.64 -71.88,200.8l0 567.97 -182.83 0zm-839.83 19.57c-102.19,0 -190.95,-20.92 -266.05,-63.02 -75.1,-41.75 -132.87,-101.2 -173.63,-178.54 -40.85,-77.32 -61.43,-167.45 -61.43,-270.98 0,-103.42 20.58,-192.82 61.43,-268.65 40.76,-75.35 97.9,-133.83 172.01,-175.22 74.11,-41.48 160.57,-62.03 259.54,-62.03 94.58,0 176.57,18.94 245.76,57.12 68.84,38.18 122.39,92.08 160.57,161.55 38.26,69.55 57.12,152.42 57.12,248.09l0 73.48 -780.11 0c5.54,102.19 36.83,181.84 93.95,238.98 57.12,57.12 133.56,85.83 229.22,85.83 66.26,0 122.41,-14.05 168.08,-41.75 45.68,-27.8 77.34,-68.59 94.67,-123.12l186.06 0c-23.79,101.2 -75.37,179.53 -154.03,235.05 -79.04,55.5 -176.67,83.22 -293.16,83.22zm-318.28 -612.05l597.39 0c-8.84,-80.64 -38.18,-142.95 -88.77,-187.74 -50.61,-44.71 -117.58,-66.86 -200.17,-66.86 -81.63,0 -149.48,22.16 -204.02,66.86 -54.54,44.79 -89.14,107.1 -104.43,187.74zm-1438.92 984.23l0 -1181.71 -94.58 0 0 -189.36 195.8 0 0 150.19 68.57 0c32.63,-55.5 77.43,-97.63 133.83,-126.67 56.51,-28.71 124.09,-43.09 202.4,-43.09 98.89,0 182.83,20.56 251.41,62.03 68.48,41.39 121.04,100.23 157.6,176.21 36.2,76.08 54.54,166.55 54.54,270.98 0,104.41 -17.98,194.9 -53.91,270.98 -35.85,75.98 -87.09,134.8 -154.03,176.21 -66.89,41.47 -146.9,62.03 -239.25,62.03 -77.41,0 -144.65,-15.65 -202.4,-46.66 -57.83,-30.66 -101.2,-74.74 -130.62,-131.25l-6.53 0 0 550.09 -182.83 0zm478.32 -528.91c97.88,0 173.96,-30.93 227.79,-92.97 53.91,-62.05 80.64,-148.6 80.64,-259.54 0,-110.94 -26.73,-197.48 -80.64,-259.54 -53.82,-62.03 -129.91,-92.97 -227.79,-92.97 -89.14,0 -160.92,25.39 -214.49,76.69 -53.91,51.24 -81,119.09 -81,204.01l0 143.58c0,84.94 27.09,152.8 81,204.01 53.57,51.32 125.35,76.71 214.49,76.71zm-1365.44 156.72c-101.2,0 -189.36,-20.92 -264.37,-63.02 -75.1,-41.75 -133.2,-100.84 -174.68,-176.92 -41.5,-76 -62.06,-165.84 -62.06,-269.28 -0.99,-103.45 18.96,-193.28 60.44,-269.28 41.5,-76.08 99.88,-135.18 175.58,-177.28 75.45,-41.75 163.88,-62.66 265.08,-62.66 104.52,0 193.56,20.56 267.67,62.03 74.11,41.39 131.61,100.23 172.37,176.21 40.87,76.08 61.07,166.55 61.07,270.98 0.99,103.45 -18.96,193.28 -60.44,270 -41.39,76.69 -99.5,135.79 -174.59,177.2 -75.12,41.47 -163.88,62.03 -266.07,62.03zm0 -159.94c101.2,0 179.89,-30.66 236.02,-92.36 55.8,-61.42 83.85,-146.98 83.85,-256.93 0,-110.94 -28.06,-196.85 -83.85,-257.92 -56.13,-60.98 -134.82,-91.37 -236.02,-91.37 -100.21,0 -178.54,30.66 -235.03,92.08 -56.51,61.68 -84.84,147.25 -84.84,257.21 0,109.96 28.33,195.51 84.84,256.93 56.49,61.7 134.82,92.36 235.03,92.36zm13864.94 -1941.72l0 -2092.97 465.07 0 709.32 845.9 706.38 -845.9 468.01 0 0 2092.97 -453.45 0 0 -1404.04 -720.93 860.47 -723.79 -857.53 0 1401.1 -450.6 0zm-2898.29 0l0 -2092.97 1933.03 0 0 453.52 -1476.64 0 0 366.2 1188.85 0 0 453.54 -1188.85 0 0 366.28 1476.64 0 0 453.43 -1933.03 0zm-2720.95 0c-79.48,0 -151.62,-19.38 -216.53,-58.11 -64.91,-38.79 -116.76,-90.66 -155.57,-155.55 -38.7,-64.91 -58.11,-137.07 -58.11,-216.53l0 -1232.6c0,-79.38 19.4,-151.62 58.11,-216.53 38.81,-64.89 90.66,-116.76 155.57,-155.55 64.91,-38.72 137.05,-58.11 216.53,-58.11l1229.63 0c79.46,0 151.62,19.38 216.53,58.11 64.91,38.79 117.28,90.66 156.98,155.55 39.71,64.91 59.64,137.15 59.64,216.53l0 197.67 -456.39 0 0 -174.34c0,0 0,0 0,0 0,0 0,0 0,0l-1186 0c0,0 0,0 0,0 0,0 0,0 0,0l0 1186.02c0,0 0,0 0,0 0,0 0,0 0,0l1186 0c0,0 0,0 0,0 0,0 0,0 0,0l0 -313.99 -453.54 0 0 -453.43 909.93 0 0 790.67c0,79.46 -19.93,151.62 -59.64,216.53 -39.69,64.89 -92.06,116.76 -156.98,155.55 -64.91,38.72 -137.07,58.11 -216.53,58.11l-1229.63 0zm-3587.24 0l0 -1662.78c0,-79.38 19.4,-151.62 58.11,-216.53 38.81,-64.89 90.66,-116.76 155.57,-155.55 64.91,-38.72 137.05,-58.11 216.53,-58.11l1229.63 0c79.46,0 151.62,19.38 216.53,58.11 64.89,38.79 117.28,90.66 156.98,155.55 39.69,64.91 59.64,137.15 59.64,216.53l0 1662.78 -456.39 0 0 -674.35 -1186.02 0 0 674.35 -450.58 0zm450.58 -1127.89l1186.02 0 0 -511.56c0,0 0,0 0,0 0,0 0,0 0,0l-1186.02 0c0,0 0,0 0,0 0,0 0,0 0,0l0 511.56zm-3136.64 -14.47l1186 0c0,0 0,0 0,0 0,0 0,0 0,0l0 -497.09c0,0 0,0 0,0 0,0 0,0 0,0l-1186 0c0,0 0,0 0,0 0,0 0,0 0,0l0 497.09c0,0 0,0 0,0 0,0 0,0 0,0zm-3607.63 1142.36l0 -1662.78c0,-79.38 19.4,-151.62 58.11,-216.53 38.81,-64.89 90.66,-116.76 155.57,-155.55 64.91,-38.72 137.05,-58.11 216.53,-58.11l1229.63 0c79.46,0 151.62,19.38 216.53,58.11 64.89,38.79 117.28,90.66 156.97,155.55 39.71,64.91 59.64,137.15 59.64,216.53l0 1662.78 -456.39 0 0 -674.35 -1186 0 0 674.35 -450.6 0zm450.6 -1127.89l1186 0 0 -511.56c0,0 0,0 0,0 0,0 0,0 0,0l-1186 0c0,0 0,0 0,0 0,0 0,0 0,0l0 511.56z"/>
 </g>
</svg>
