<?xml version="1.0" encoding="UTF-8"?>
<!DOCTYPE svg PUBLIC "-//W3C//DTD SVG 1.1//EN" "http://www.w3.org/Graphics/SVG/1.1/DTD/svg11.dtd">
<!-- Creator: CorelDRAW -->
<svg xmlns="http://www.w3.org/2000/svg" xml:space="preserve" width="210mm" height="297mm" version="1.1" style="shape-rendering:geometricPrecision; text-rendering:geometricPrecision; image-rendering:optimizeQuality; fill-rule:evenodd; clip-rule:evenodd"
viewBox="0 0 21000 21000"
 xmlns:xlink="http://www.w3.org/1999/xlink"
 xmlns:xodm="http://www.corel.com/coreldraw/odm/2003">
 <defs>
  <style type="text/css">
   <![CDATA[
    .fil0 {fill:#212121}
   ]]>
  </style>
 </defs>
 <g id="Camada_x0020_1">
  <metadata id="CorelCorpID_0Corel-Layer"/>
  <path class="fil0" d="M10484.92 1.03c5799.02,0 10500.04,4701.02 10500.04,10500.04 0,5799 -4701.02,10500.04 -10500.04,10500.04 -5799,0 -10500.04,-4701.04 -10500.04,-10500.04 0,-5799.02 4701.04,-10500.04 10500.04,-10500.04zm-888.01 17286.05l2538.23 0c2096.85,0 3812.47,-1715.62 3812.47,-3812.47 0,-1222.91 -40.7,-2495.43 -1202.23,-3686.89 -717.13,-735.57 -1682.02,-1163.9 -2715.89,-1145.36l-5179.84 93.05c-1264.16,-74.38 -2197.57,1020.43 -2175.77,2238.12 19.45,1084.08 799.78,2066.65 1883.74,2161.22l5550.85 -95.82c3789.79,-65.39 2963.14,3645.22 2.69,3645.22l-2514.25 0c-3074.99,0 -5607.59,-2450.26 -5741.84,-5493.77 0,-1887.19 1651.8,-3293.01 3483.98,-3293.01 1887.73,0 2961.5,6.61 4848.8,6.61 1143.68,0 2205.59,-852.94 2205.59,-2052.01 0,-1190.85 -1053.21,-2052.04 -2205.59,-2052.04l-88.49 0c-1182.01,0.15 -1549.49,2.75 -2732.02,4.62 -4164.47,149.94 -6293.74,3578.04 -6113.96,7428.52 158.07,3378.88 2974.29,6054.01 6343.53,6054.01zm-2792.83 -7659.6c719.94,0 1303.57,583.59 1303.57,1303.58 0,719.92 -583.63,1303.6 -1303.57,1303.6 -719.96,0 -1303.6,-583.67 -1303.6,-1303.6 0,-719.99 583.63,-1303.58 1303.6,-1303.58zm5354.29 -5092.31c719.94,0 1303.57,583.63 1303.57,1303.55 0,719.98 -583.63,1303.62 -1303.57,1303.62 -719.94,0 -1303.58,-583.63 -1303.58,-1303.62 0,-719.92 583.63,-1303.55 1303.58,-1303.55z"/>
 </g>
</svg>
