<?xml version="1.0" encoding="UTF-8"?>
<!DOCTYPE svg PUBLIC "-//W3C//DTD SVG 1.1//EN" "http://www.w3.org/Graphics/SVG/1.1/DTD/svg11.dtd">
<!-- Creator: CorelDRAW -->
<svg xmlns="http://www.w3.org/2000/svg" xml:space="preserve" width="210mm" height="297mm" version="1.1" style="shape-rendering:geometricPrecision; text-rendering:geometricPrecision; image-rendering:optimizeQuality; fill-rule:evenodd; clip-rule:evenodd"
viewBox="0 0 21000 21000"
 xmlns:xlink="http://www.w3.org/1999/xlink"
 xmlns:xodm="http://www.corel.com/coreldraw/odm/2003">
 <defs>
  <style type="text/css">
   <![CDATA[
    .fil0 {fill:#FFF8F2}
   ]]>
  </style>
 </defs>
 <g id="Camada_x0020_1">
  <metadata id="CorelCorpID_0Corel-Layer"/>
  <path class="fil0" d="M9596.87 17287.31l2538.21 0c2096.81,0 3812.4,-1715.6 3812.4,-3812.4 0,-1222.91 -40.7,-2495.41 -1202.23,-3686.86 -717.11,-735.55 -1681.97,-1163.88 -2715.85,-1145.34l-5179.75 93.05c-1264.16,-74.38 -2197.55,1020.41 -2175.75,2238.1 19.43,1084.08 799.76,2066.61 1883.7,2161.19l5550.78 -95.82c3789.74,-65.39 2963.12,3645.16 2.71,3645.16l-2514.23 0c-3074.97,0 -5607.53,-2450.22 -5741.78,-5493.7 0,-1887.14 1651.78,-3292.95 3483.96,-3292.95 1887.69,0 2961.44,6.61 4848.73,6.61 1143.64,0 2205.55,-852.94 2205.55,-2051.99 0,-1190.83 -1053.19,-2052.02 -2205.55,-2052.02l-88.52 0c-1181.99,0.15 -1549.46,2.75 -2731.97,4.62 -4164.43,149.94 -6293.68,3578 -6113.88,7428.41 158.07,3378.84 2974.23,6053.94 6343.45,6053.94zm887.99 -17285.83c5798.94,0 10499.92,4700.98 10499.92,10499.92 0,5798.94 -4700.98,10499.92 -10499.92,10499.92 -5798.94,0 -10499.9,-4700.98 -10499.9,-10499.92 0,-5798.94 4700.95,-10499.92 10499.9,-10499.92zm0 649.76c5440.09,0 9850.18,4410.06 9850.18,9850.16 0,5440.09 -4410.08,9850.16 -9850.18,9850.16 -5440.09,0 -9850.16,-4410.06 -9850.16,-9850.16 0,-5440.09 4410.06,-9850.16 9850.16,-9850.16zm-3680.78 8976.58c719.92,0 1303.55,583.59 1303.55,1303.55 0,719.92 -583.63,1303.57 -1303.55,1303.57 -719.96,0 -1303.6,-583.65 -1303.6,-1303.57 0,-719.96 583.63,-1303.55 1303.6,-1303.55zm5354.2 -5092.27c719.92,0 1303.55,583.63 1303.55,1303.55 0,719.96 -583.63,1303.6 -1303.55,1303.6 -719.92,0 -1303.55,-583.63 -1303.55,-1303.6 0,-719.92 583.63,-1303.55 1303.55,-1303.55z"/>
 </g>
</svg>
