<?xml version="1.0" encoding="UTF-8"?>
<!DOCTYPE svg PUBLIC "-//W3C//DTD SVG 1.1//EN" "http://www.w3.org/Graphics/SVG/1.1/DTD/svg11.dtd">
<!-- Creator: CorelDRAW -->
<svg xmlns="http://www.w3.org/2000/svg" xml:space="preserve" width="210mm" height="297mm" version="1.1" style="shape-rendering:geometricPrecision; text-rendering:geometricPrecision; image-rendering:optimizeQuality; fill-rule:evenodd; clip-rule:evenodd"
viewBox="0 0 21000 14635.11"
 xmlns:xlink="http://www.w3.org/1999/xlink"
 xmlns:xodm="http://www.corel.com/coreldraw/odm/2003">
 <defs>
  <style type="text/css">
   <![CDATA[
    .fil0 {fill:#FFF8F2}
   ]]>
  </style>
 </defs>
 <g id="Camada_x0020_1">
  <metadata id="CorelCorpID_0Corel-Layer"/>
  <path class="fil0" d="M10792.19 1.09c2320.35,0 4201.34,1881.01 4201.34,4201.34 0,2320.33 -1880.99,4201.34 -4201.34,4201.34 -2320.33,0 -4201.32,-1881.01 -4201.32,-4201.34 0,-2320.33 1880.99,-4201.34 4201.32,-4201.34zm-10376.94 12161.14c-79.46,0 -151.66,-19.38 -216.57,-58.15 -64.91,-38.75 -116.76,-90.59 -155.53,-155.5 -38.74,-64.93 -58.13,-137.11 -58.13,-216.57l0 -1232.55c0,-79.44 19.38,-151.62 58.13,-216.55 38.77,-64.93 90.61,-116.76 155.53,-155.53 64.91,-38.77 137.11,-58.13 216.57,-58.13l1229.63 0c79.44,0 151.64,19.36 216.55,58.13 64.93,38.77 117.26,90.59 156.98,155.53 39.73,64.93 59.6,137.11 59.6,216.55l0 197.69 -456.39 0 0 -174.43c0,0 0,0 0,0 0,0 0,0 0,0l-1186.02 0c0,0 0,0 0,0 0,0 0,0 0,0l0 1186.02c0,0 0,0 0,0 0,0 0,0 0,0l1186.02 0c0,0 0,0 0,0 0,0 0,0 0,0l0 -313.93 -453.47 0 0 -453.5 909.87 0 0 790.69c0,79.46 -19.87,151.64 -59.6,216.57 -39.71,64.91 -92.04,116.76 -156.98,155.5 -64.91,38.77 -137.11,58.15 -216.55,58.15l-1229.63 0zm10021.62 -5244.54l1015.62 0c839.01,0 1525.46,-686.47 1525.46,-1525.46 0,-489.32 -16.27,-998.51 -481.05,-1475.23 -286.94,-294.32 -673.01,-465.72 -1086.69,-458.28l-2072.59 37.21c-505.83,-29.76 -879.31,408.32 -870.58,895.55 7.77,433.78 320,826.92 753.71,864.76l2221.07 -38.35c1516.39,-26.17 1185.62,1458.56 1.07,1458.56l-1006.03 0c-1230.37,0 -2243.74,-980.41 -2297.46,-2198.22 0,-755.1 660.93,-1317.6 1394.04,-1317.6 755.33,0 1184.99,2.65 1940.15,2.65 457.61,0 882.5,-341.29 882.5,-821.08 0,-476.47 -421.43,-821.06 -882.5,-821.06l-35.43 0c-472.94,0.04 -619.98,1.09 -1093.15,1.83 -1666.31,60.02 -2518.3,1431.68 -2446.35,2972.36 63.25,1351.98 1190.09,2422.37 2538.21,2422.37zm1024.93 -5102.39c288.06,0 521.58,233.52 521.58,521.6 0,288.08 -233.52,521.6 -521.58,521.6 -288.08,0 -521.6,-233.52 -521.6,-521.6 0,-288.08 233.52,-521.6 521.6,-521.6zm-2142.4 2037.57c288.06,0 521.6,233.52 521.6,521.6 0,288.08 -233.54,521.62 -521.6,521.62 -288.08,0 -521.62,-233.54 -521.62,-521.62 0,-288.08 233.54,-521.6 521.62,-521.6zm9316.82 8309.36l0 -2092.99 465.13 0 709.28 845.9 706.38 -845.9 468.03 0 0 2092.99 -453.5 0 0 -1404.06 -720.91 860.45 -723.83 -857.53 0 1401.14 -450.58 0zm-2898.27 0l0 -2092.99 1933.11 0 0 453.47 -1476.72 0 0 366.28 1188.94 0 0 453.47 -1188.94 0 0 366.26 1476.72 0 0 453.49 -1933.11 0zm-2720.93 0c-79.46,0 -151.66,-19.38 -216.57,-58.15 -64.91,-38.75 -116.76,-90.59 -155.53,-155.5 -38.75,-64.93 -58.13,-137.11 -58.13,-216.57l0 -1232.55c0,-79.44 19.38,-151.62 58.13,-216.55 38.77,-64.93 90.61,-116.76 155.53,-155.53 64.91,-38.77 137.11,-58.13 216.57,-58.13l1229.63 0c79.44,0 151.64,19.36 216.55,58.13 64.93,38.77 117.26,90.59 157,155.53 39.71,64.93 59.58,137.11 59.58,216.55l0 197.69 -456.39 0 0 -174.43c0,0 0,0 0,0 0,0 0,0 0,0l-1186.02 0c0,0 0,0 0,0 0,0 0,0 0,0l0 1186.02c0,0 0,0 0,0 0,0 0,0 0,0l1186.02 0c0,0 0,0 0,0 0,0 0,0 0,0l0 -313.93 -453.47 0 0 -453.5 909.87 0 0 790.69c0,79.46 -19.87,151.64 -59.58,216.57 -39.73,64.91 -92.06,116.76 -157,155.5 -64.91,38.77 -137.11,58.15 -216.55,58.15l-1229.63 0zm-3587.22 0l0 -1662.78c0,-79.44 19.38,-151.62 58.15,-216.55 38.74,-64.93 90.59,-116.76 155.53,-155.53 64.91,-38.77 137.11,-58.13 216.57,-58.13l1229.61 0c79.46,0 151.64,19.36 216.57,58.13 64.93,38.77 117.24,90.59 156.98,155.53 39.73,64.93 59.58,137.11 59.58,216.55l0 1662.78 -456.37 0 0 -674.42 -1186.04 0 0 674.42 -450.58 0zm450.58 -1127.89l1186.04 0 0 -511.62c0,0 0,0 0,0 0,0 0,0 0,0l-1186.04 0c0,0 0,0 0,0 0,0 0,0 0,0l0 511.62zm-1962.22 1127.89l-577.04 -687.48 -597.37 1.45 0 686.03 -450.58 0 0 -2090.09 1659.86 0c79.46,0 151.64,19.38 216.57,58.15 64.91,38.75 117.24,91.08 156.97,156.95 39.71,65.9 59.58,137.61 59.58,215.12l0 540.69c0,77.53 -19.87,149.23 -59.58,215.1 -39.73,65.9 -92.06,118.23 -156.97,157 -64.93,38.75 -137.11,58.13 -216.57,58.13l-22.74 0.04 452.97 534.83 0 154.08 -465.11 0zm-1174.4 -1142.42l1186.02 0c0,0 0,0 0,0 0,0 0,0 0,0l0 -497.09c0,0 0,0 0,0 0,0 0,0 0,0l-1186.02 0c0,0 0,0 0,0 0,0 0,0 0,0l0 497.09c0,0 0,0 0,0 0,0 0,0 0,0zm-3607.57 1142.42l0 -1662.78c0,-79.44 19.38,-151.62 58.15,-216.55 38.77,-64.93 90.59,-116.76 155.53,-155.53 64.91,-38.77 137.11,-58.13 216.57,-58.13l1229.61 0c79.46,0 151.64,19.36 216.57,58.13 64.93,38.77 117.24,90.59 156.97,155.53 39.73,64.93 59.6,137.11 59.6,216.55l0 1662.78 -456.39 0 0 -674.42 -1186.04 0 0 674.42 -450.58 0zm450.58 -1127.89l1186.04 0 0 -511.62c0,0 0,0 0,0 0,0 0,0 0,0l-1186.04 0c0,0 0,0 0,0 0,0 0,0 0,0l0 511.62zm12725.6 3229.8c-102.17,0 -190.93,-20.9 -266.03,-63 -75.05,-41.77 -132.85,-101.18 -173.63,-178.54 -40.8,-77.36 -61.36,-167.45 -61.36,-270.92 0,-103.47 20.56,-192.91 61.36,-268.63 40.78,-75.39 97.9,-133.81 172.01,-175.29 74.09,-41.43 160.59,-61.99 259.5,-61.99 94.65,0 176.57,18.92 245.76,57.12 68.88,38.18 122.41,92.02 160.61,161.55 38.2,69.53 57.12,152.44 57.12,248.07l0 73.44 -780.11 0c5.54,102.16 36.88,181.82 94,238.94 57.12,57.12 133.52,85.85 229.13,85.85 66.25,0 122.41,-14.03 168.1,-41.79 45.7,-27.74 77.36,-68.54 94.65,-123.06l186.06 0c-23.81,101.2 -75.39,179.53 -154.06,235.01 -79,55.5 -176.59,83.24 -293.12,83.24zm-318.23 -612l597.32 0c-8.82,-80.64 -38.2,-142.97 -88.79,-187.7 -50.59,-44.71 -117.49,-66.91 -200.09,-66.91 -81.61,0 -149.5,22.2 -203.99,66.91 -54.52,44.73 -89.12,107.06 -104.45,187.7zm-883.89 612c-98.91,0 -185.41,-20.9 -259.5,-63 -74.09,-41.77 -131.21,-100.86 -172.01,-176.9 -40.8,-76.06 -61.36,-165.82 -61.36,-269.3 0,-103.47 20.24,-193.22 60.38,-269.26 40.15,-76.06 97.27,-135.14 171.38,-177.24 74.09,-41.79 160.92,-62.66 261.11,-62.66 119.81,0 219.68,29.69 299.65,88.77 79.97,59.41 132.2,144.61 157.33,255.59l-184.42 0c-18.61,-63 -50.27,-109.68 -95.32,-139.71 -45.36,-29.72 -104.45,-44.71 -177.24,-44.71 -96.94,0 -172.66,30.34 -227.49,91.39 -55.17,61.03 -82.59,146.87 -82.59,257.84 0,110.02 27.43,195.53 82.59,256.89 54.83,61.7 130.56,92.38 227.49,92.38 151.12,0 244.15,-66.91 279.09,-200.74l184.42 0c-23.83,116.53 -76.06,205.63 -156.68,267.65 -80.62,62.03 -182.81,93.03 -306.83,93.03zm-1270.67 -19.59l0 -789.89 -94.67 0 0 -189.31 195.85 0 0 182.78 68.54 0c27.09,-59.72 69.53,-106.74 126.65,-140.36 57.12,-33.6 124.03,-50.59 201.39,-50.59l79.97 0 0 156.68 -89.75 0c-97.92,0 -173.65,28.73 -226.86,86.5 -53.19,57.77 -79.97,135.47 -79.97,233.37l0 510.82 -181.15 0zm-986.71 17.96c-126.32,0 -225.23,-35.24 -297.02,-105.42 -71.82,-70.18 -107.71,-164.51 -107.71,-283l0 -608.75 182.78 0 0 569.58c0,88.14 22.85,154.71 68.54,199.75 45.7,45.38 111.95,67.89 199.1,67.89 92.38,0 164.18,-23.5 214.77,-71.15 50.59,-47.02 75.73,-113.27 75.73,-198.14l0 -567.94 182.81 0 0 789.89 94.65 0 0 189.31 -195.85 0 0 -150.15 -68.54 0c-34.92,54.52 -81.61,95.97 -140.34,124.7 -58.76,29.04 -128.29,43.41 -208.91,43.41zm-1242.93 1.64c-101.2,0 -189.31,-20.9 -264.39,-63 -75.07,-41.77 -133.18,-100.86 -174.64,-176.9 -41.45,-76.06 -62.01,-165.82 -62.01,-269.3 -0.99,-103.47 18.94,-193.22 60.38,-269.26 41.48,-76.06 99.9,-135.14 175.62,-177.24 75.39,-41.79 163.84,-62.66 265.04,-62.66 104.45,0 193.56,20.56 267.65,61.99 74.09,41.48 131.54,100.21 172.35,176.27 40.8,76.06 61.05,166.47 61.05,270.9 0.97,103.49 -18.94,193.24 -60.4,269.95 -41.45,76.69 -99.54,135.79 -174.64,177.24 -75.05,41.45 -163.84,62.01 -266.01,62.01zm0 -159.94c101.18,0 179.84,-30.68 235.98,-92.38 55.82,-61.36 83.9,-146.87 83.9,-256.89 0,-110.96 -28.08,-196.81 -83.9,-257.84 -56.13,-61.05 -134.8,-91.39 -235.98,-91.39 -100.21,0 -178.54,30.68 -235.01,92.04 -56.47,61.7 -84.86,147.19 -84.86,257.19 0,110.02 28.39,195.53 84.86,256.89 56.47,61.7 134.8,92.38 235.01,92.38zm-1176.02 159.94c-136.12,0 -243.18,-28.39 -321.51,-84.86 -78.33,-56.47 -121.42,-135.47 -128.92,-236.65l181.15 0c7.5,59.72 33.62,103.8 78.33,132.19 44.73,28.39 110.33,42.44 197.48,42.44 152.44,0 228.48,-47.99 228.48,-143.62 0,-39.19 -11.74,-69.53 -34.92,-90.74 -23.5,-21.23 -63,-36.56 -118.48,-46.35l-213.8 -39.19c-181.8,-33.62 -272.54,-120.12 -272.54,-259.5 0,-90.41 34.27,-161.55 102.8,-213.78 68.57,-52.23 162.23,-78.33 280.73,-78.33 123.04,0 220.65,26.75 293.1,79.97 72.14,53.19 113.27,128.27 123.06,225.2l-177.89 0c-10.77,-54.5 -36.22,-94.65 -75.73,-120.77 -39.82,-26.1 -95.63,-39.16 -167.45,-39.16 -66.26,0 -117.81,11.42 -154.06,34.27 -36.56,22.85 -54.83,56.13 -54.83,99.56 0,33.62 11.74,60.06 35.24,78.98 23.18,19.26 61.05,33.62 113.27,43.41l213.8 40.8c95.63,17.3 165.82,48.32 210.52,93.03 44.73,44.73 66.91,104.45 66.91,179.53 0,95.63 -34.92,170.37 -104.43,223.59 -69.53,53.19 -169.74,79.97 -300.3,79.97zm-2178.08 -19.59l0 -789.89 -94.67 0 0 -189.31 195.85 0 0 150.15 68.54 0c33.62,-54.52 79.97,-95.97 138.73,-125.01 58.76,-28.73 127.95,-43.09 207.27,-43.09 126.32,0 225.85,36.23 298.66,108.38 72.79,72.45 109.35,169.07 109.35,289.84l0 598.94 -182.78 0 0 -567.92c0,-88.14 -23.52,-155.06 -70.83,-200.76 -47.33,-45.7 -116.86,-68.54 -208.26,-68.54 -90.41,0 -159.28,22.85 -207.27,68.54 -47.96,45.7 -71.8,112.62 -71.8,200.76l0 567.92 -182.78 0zm-839.81 19.59c-102.16,0 -190.95,-20.9 -266.03,-63 -75.07,-41.77 -132.85,-101.18 -173.65,-178.54 -40.8,-77.36 -61.36,-167.45 -61.36,-270.92 0,-103.47 20.56,-192.91 61.36,-268.63 40.8,-75.39 97.92,-133.81 172.01,-175.29 74.09,-41.43 160.59,-61.99 259.5,-61.99 94.65,0 176.59,18.92 245.78,57.12 68.86,38.18 122.41,92.02 160.59,161.55 38.2,69.53 57.12,152.44 57.12,248.07l0 73.44 -780.11 0c5.57,102.16 36.88,181.82 94,238.94 57.14,57.12 133.52,85.85 229.15,85.85 66.25,0 122.41,-14.03 168.08,-41.79 45.7,-27.74 77.36,-68.54 94.67,-123.06l186.06 0c-23.84,101.2 -75.41,179.53 -154.08,235.01 -78.98,55.5 -176.59,83.24 -293.1,83.24zm-318.25 -612l597.32 0c-8.82,-80.64 -38.18,-142.97 -88.79,-187.7 -50.59,-44.71 -117.5,-66.91 -200.09,-66.91 -81.61,0 -149.48,22.2 -203.99,66.91 -54.52,44.73 -89.1,107.06 -104.45,187.7zm-1438.77 984.1l0 -1181.59 -94.65 0 0 -189.31 195.85 0 0 150.15 68.54 0c32.63,-55.48 77.34,-97.61 133.81,-126.65 56.47,-28.73 124.05,-43.07 202.38,-43.07 98.91,0 182.78,20.56 251.33,61.99 68.57,41.48 121.11,100.21 157.67,176.27 36.22,76.06 54.52,166.47 54.52,270.9 0,104.47 -17.98,194.88 -53.86,270.94 -35.91,76.04 -87.15,134.8 -154.08,176.25 -66.91,41.45 -146.87,62.01 -239.23,62.01 -77.36,0 -144.61,-15.67 -202.38,-46.68 -57.77,-30.68 -101.2,-74.74 -130.58,-131.21l-6.51 0 0 549.99 -182.8 0zm478.19 -528.78c97.92,0 173.98,-31 227.83,-93.03 53.86,-62.01 80.62,-148.51 80.62,-259.5 0,-110.96 -26.75,-197.46 -80.62,-259.48 -53.84,-62.01 -129.91,-93.03 -227.83,-93.03 -89.1,0 -160.92,25.45 -214.45,76.71 -53.84,51.24 -80.93,119.13 -80.93,203.99l0 143.62c0,84.86 27.09,152.77 80.93,204.01 53.53,51.24 125.35,76.69 214.45,76.69zm-1365.34 156.68c-101.18,0 -189.31,-20.9 -264.39,-63 -75.07,-41.77 -133.16,-100.86 -174.61,-176.9 -41.45,-76.06 -62.01,-165.82 -62.01,-269.3 -0.99,-103.47 18.92,-193.22 60.38,-269.26 41.45,-76.06 99.88,-135.14 175.6,-177.24 75.39,-41.79 163.86,-62.66 265.04,-62.66 104.45,0 193.56,20.56 267.65,61.99 74.11,41.48 131.54,100.21 172.35,176.27 40.8,76.06 61.05,166.47 61.05,270.9 0.99,103.49 -18.92,193.24 -60.4,269.95 -41.45,76.69 -99.54,135.79 -174.61,177.24 -75.07,41.45 -163.86,62.01 -266.03,62.01zm0 -159.94c101.18,0 179.84,-30.68 236,-92.38 55.82,-61.36 83.87,-146.87 83.87,-256.89 0,-110.96 -28.06,-196.81 -83.87,-257.84 -56.15,-61.05 -134.82,-91.39 -236,-91.39 -100.21,0 -178.54,30.68 -235.01,92.04 -56.47,61.7 -84.86,147.19 -84.86,257.19 0,110.02 28.39,195.53 84.86,256.89 56.47,61.7 134.8,92.38 235.01,92.38zm6020.34 -13843.14c2176.78,0 3941.36,1764.61 3941.36,3941.36 0,2176.76 -1764.59,3941.36 -3941.36,3941.36 -2176.75,0 -3941.36,-1764.61 -3941.36,-3941.36 0,-2176.76 1764.61,-3941.36 3941.36,-3941.36z"/>
 </g>
</svg>
