<?xml version="1.0" encoding="UTF-8"?>
<!DOCTYPE svg PUBLIC "-//W3C//DTD SVG 1.1//EN" "http://www.w3.org/Graphics/SVG/1.1/DTD/svg11.dtd">
<!-- Creator: CorelDRAW -->
<svg xmlns="http://www.w3.org/2000/svg" xml:space="preserve" width="210mm" height="297mm" version="1.1" style="shape-rendering:geometricPrecision; text-rendering:geometricPrecision; image-rendering:optimizeQuality; fill-rule:evenodd; clip-rule:evenodd"
viewBox="0 0 21000 4566.87"
 xmlns:xlink="http://www.w3.org/1999/xlink"
 xmlns:xodm="http://www.corel.com/coreldraw/odm/2003">
 <defs>
  <style type="text/css">
   <![CDATA[
    .fil0 {fill:#FFF8F2;fill-rule:nonzero}
   ]]>
  </style>
 </defs>
 <g id="Camada_x0020_1">
  <metadata id="CorelCorpID_0Corel-Layer"/>
  <path class="fil0" d="M415.19 2094.08c-79.46,0 -151.62,-19.4 -216.53,-58.11 -64.89,-38.81 -116.74,-90.66 -155.55,-155.57 -38.7,-64.91 -58.11,-137.05 -58.11,-216.53l0 -1232.57c0,-79.38 19.4,-151.62 58.11,-216.53 38.81,-64.91 90.66,-116.76 155.55,-155.55 64.91,-38.72 137.07,-58.13 216.53,-58.13l1229.63 0c79.49,0 151.62,19.4 216.53,58.13 64.91,38.79 117.28,90.64 157,155.55 39.69,64.91 59.62,137.15 59.62,216.53l0 197.67 -456.39 0 0 -174.34c0,0 0,0 0,0 0,0 0,0 0,0l-1186 0c0,0 0,0 0,0 0,0 0,0 0,0l0 1186c0,0 0,0 0,0 0,0 0,0 0,0l1186 0c0,0 0,0 0,0 0,0 0,0 0,0l0 -313.97 -453.54 0 0 -453.45 909.93 0 0 790.67c0,79.49 -19.93,151.62 -59.62,216.53 -39.71,64.91 -92.08,116.76 -157,155.57 -64.91,38.7 -137.05,58.11 -216.53,58.11l-1229.63 0zm71.88 2101.64c-101.2,0 -189.36,-20.92 -264.35,-63.02 -75.1,-41.77 -133.22,-100.86 -174.7,-176.92 -41.48,-76 -62.03,-165.86 -62.03,-269.28 -0.99,-103.45 18.94,-193.28 60.42,-269.28 41.5,-76.08 99.88,-135.18 175.6,-177.28 75.45,-41.75 163.86,-62.66 265.06,-62.66 104.52,0 193.56,20.56 267.67,62.03 74.13,41.39 131.61,100.23 172.37,176.21 40.87,76.08 61.07,166.57 61.07,270.98 0.99,103.43 -18.96,193.28 -60.44,270 -41.39,76.69 -99.5,135.79 -174.59,177.18 -75.1,41.5 -163.88,62.06 -266.07,62.06zm0 -159.94c101.2,0 179.89,-30.66 236.02,-92.36 55.8,-61.42 83.87,-146.98 83.87,-256.93 0,-110.94 -28.08,-196.85 -83.87,-257.92 -56.13,-60.98 -134.82,-91.37 -236.02,-91.37 -100.21,0 -178.52,30.66 -235.03,92.09 -56.51,61.68 -84.84,147.25 -84.84,257.21 0,109.96 28.33,195.51 84.84,256.93 56.51,61.7 134.82,92.36 235.03,92.36zm887.15 532.12l0 -1181.71 -94.6 0 0 -189.36 195.8 0 0 150.19 68.57 0c32.63,-55.5 77.43,-97.63 133.83,-126.67 56.51,-28.71 124.09,-43.09 202.4,-43.09 98.89,0 182.83,20.56 251.41,62.03 68.48,41.39 121.04,100.23 157.6,176.21 36.2,76.08 54.54,166.57 54.54,270.98 0,104.41 -17.98,194.9 -53.91,270.96 -35.85,76 -87.09,134.82 -154.03,176.21 -66.89,41.5 -146.9,62.06 -239.25,62.06 -77.41,0 -144.65,-15.65 -202.4,-46.66 -57.83,-30.68 -101.2,-74.74 -130.62,-131.25l-6.51 0 0 550.09 -182.83 0zm478.3 -528.91c97.88,0 173.96,-30.93 227.79,-92.97 53.91,-62.05 80.64,-148.6 80.64,-259.54 0,-110.94 -26.73,-197.48 -80.64,-259.54 -53.82,-62.03 -129.91,-92.97 -227.79,-92.97 -89.15,0 -160.92,25.39 -214.47,76.69 -53.93,51.24 -81,119.09 -81,204.02l0 143.58c0,84.94 27.07,152.8 81,204.01 53.55,51.32 125.33,76.71 214.47,76.71zm1278.88 156.72c-102.19,0 -190.95,-20.92 -266.07,-63.02 -75.1,-41.77 -132.85,-101.22 -173.61,-178.54 -40.87,-77.34 -61.43,-167.45 -61.43,-270.98 0,-103.43 20.56,-192.82 61.43,-268.63 40.76,-75.37 97.9,-133.85 172.01,-175.25 74.11,-41.47 160.57,-62.03 259.54,-62.03 94.58,0 176.57,18.94 245.76,57.12 68.84,38.18 122.39,92.08 160.57,161.55 38.26,69.55 57.12,152.44 57.12,248.09l0 73.48 -780.13 0c5.54,102.19 36.83,181.84 93.98,238.98 57.12,57.12 133.56,85.83 229.21,85.83 66.26,0 122.39,-14.05 168.08,-41.77 45.67,-27.8 77.32,-68.57 94.67,-123.1l186.04 0c-23.77,101.2 -75.35,179.53 -154.03,235.03 -79.02,55.52 -176.65,83.24 -293.14,83.24zm-318.28 -612.05l597.39 0c-8.86,-80.64 -38.18,-142.95 -88.77,-187.74 -50.61,-44.71 -117.58,-66.86 -200.17,-66.86 -81.63,0 -149.48,22.15 -204.02,66.86 -54.54,44.79 -89.14,107.1 -104.43,187.74zm1158.11 592.47l0 -789.96 -94.58 0 0 -189.36 195.78 0 0 150.19 68.59 0c33.6,-54.54 80.01,-96.01 138.75,-125.05 58.74,-28.71 127.93,-43.09 207.31,-43.09 126.34,0 225.83,36.2 298.7,108.34 72.77,72.51 109.33,169.15 109.33,289.93l0 599 -182.83 0 0 -567.97c0,-88.16 -23.52,-155.13 -70.81,-200.8 -47.38,-45.68 -116.93,-68.57 -208.3,-68.57 -90.38,0 -159.31,22.89 -207.23,68.57 -48.01,45.67 -71.88,112.64 -71.88,200.8l0 567.97 -182.83 0zm2178.35 19.57c-136.14,0 -243.26,-28.43 -321.57,-84.84 -78.31,-56.51 -121.4,-135.53 -128.92,-236.65l181.12 0c7.52,59.72 33.62,103.8 78.41,132.13 44.69,28.43 110.31,42.46 197.48,42.46 152.44,0 228.5,-48.01 228.5,-143.66 0,-39.16 -11.78,-69.47 -34.94,-90.74 -23.52,-21.19 -63.02,-36.56 -118.55,-46.3l-213.76 -39.16c-181.84,-33.62 -272.58,-120.16 -272.58,-259.54 0,-90.47 34.23,-161.64 102.8,-213.84 68.59,-52.21 162.27,-78.31 280.73,-78.31 123.1,0 220.73,26.73 293.14,79.93 72.16,53.28 113.27,128.29 123.12,225.29l-177.91 0c-10.81,-54.54 -36.31,-94.67 -75.73,-120.77 -39.88,-26.12 -95.65,-39.16 -167.54,-39.16 -66.26,0 -117.83,11.44 -154.03,34.23 -36.56,22.89 -54.81,56.15 -54.81,99.6 0,33.62 11.72,60.08 35.22,78.94 23.16,19.32 61.07,33.7 113.27,43.45l213.86 40.76c95.55,17.35 165.73,48.36 210.52,93.07 44.71,44.71 66.89,104.52 66.89,179.51 0,95.68 -34.88,170.41 -104.43,223.69 -69.55,53.19 -169.76,79.93 -300.3,79.93zm1176 0c-101.22,0 -189.36,-20.92 -264.37,-63.02 -75.1,-41.77 -133.2,-100.86 -174.7,-176.92 -41.48,-76 -62.03,-165.86 -62.03,-269.28 -0.99,-103.45 18.94,-193.28 60.44,-269.28 41.48,-76.08 99.86,-135.18 175.58,-177.28 75.45,-41.75 163.86,-62.66 265.08,-62.66 104.5,0 193.54,20.56 267.67,62.03 74.11,41.39 131.59,100.23 172.37,176.21 40.85,76.08 61.05,166.57 61.05,270.98 0.99,103.43 -18.94,193.28 -60.44,270 -41.39,76.69 -99.5,135.79 -174.59,177.18 -75.1,41.5 -163.86,62.06 -266.05,62.06zm0 -159.94c101.2,0 179.87,-30.66 236.02,-92.36 55.78,-61.42 83.85,-146.98 83.85,-256.93 0,-110.94 -28.08,-196.85 -83.85,-257.92 -56.15,-60.98 -134.82,-91.37 -236.02,-91.37 -100.23,0 -178.54,30.66 -235.05,92.09 -56.49,61.68 -84.84,147.25 -84.84,257.21 0,109.96 28.35,195.51 84.84,256.93 56.51,61.7 134.82,92.36 235.05,92.36zm1242.95 158.32c-126.34,0 -225.2,-35.3 -297,-105.48 -71.88,-70.18 -107.73,-164.49 -107.73,-282.95l0 -608.83 182.83 0 0 569.67c0,88.05 22.81,154.66 68.48,199.73 45.7,45.4 112.01,67.93 199.18,67.93 92.36,0 164.14,-23.5 214.75,-71.17 50.61,-47.02 75.73,-113.25 75.73,-198.2l0 -567.97 182.83 0 0 789.96 94.67 0 0 189.36 -195.87 0 0 -150.21 -68.59 0c-34.86,54.54 -81.52,96.03 -140.34,124.72 -58.74,29.06 -128.29,43.45 -208.93,43.45zm986.71 -17.95l0 -789.96 -94.67 0 0 -189.36 195.89 0 0 182.83 68.57 0c27.09,-59.72 69.55,-106.74 126.67,-140.36 57.14,-33.6 124,-50.59 201.43,-50.59l79.93 0 0 156.62 -89.77 0c-97.88,0 -173.61,28.79 -226.88,86.54 -53.19,57.77 -79.93,135.45 -79.93,233.44l0 510.85 -181.23 0zm1270.86 19.57c-98.97,0 -185.43,-20.92 -259.54,-63.02 -74.11,-41.77 -131.25,-100.86 -172.01,-176.92 -40.87,-76 -61.43,-165.86 -61.43,-269.28 0,-103.45 20.2,-193.28 60.44,-269.28 40.15,-76.08 97.27,-135.18 171.38,-177.28 74.02,-41.75 160.92,-62.66 261.16,-62.66 119.78,0 219.66,29.67 299.67,88.77 79.93,59.45 132.13,144.65 157.25,255.61l-184.42 0c-18.61,-63.04 -50.25,-109.7 -95.32,-139.73 -45.32,-29.69 -104.41,-44.71 -177.18,-44.71 -97.02,0 -172.73,30.39 -227.53,91.37 -55.17,61.07 -82.61,146.98 -82.61,257.92 0,109.96 27.45,195.51 82.61,256.93 54.81,61.7 130.51,92.36 227.53,92.36 151.07,0 244.15,-66.97 279.01,-200.8l184.44 0c-23.77,116.59 -76,205.72 -156.64,267.67 -80.64,62.06 -182.83,93.07 -306.81,93.07zm1202.17 0c-102.19,0 -190.95,-20.92 -266.05,-63.02 -75.1,-41.77 -132.85,-101.22 -173.63,-178.54 -40.84,-77.34 -61.4,-167.45 -61.4,-270.98 0,-103.43 20.56,-192.82 61.4,-268.63 40.78,-75.37 97.9,-133.85 172.01,-175.25 74.11,-41.47 160.57,-62.03 259.54,-62.03 94.58,0 176.57,18.94 245.76,57.12 68.84,38.18 122.39,92.08 160.57,161.55 38.26,69.55 57.12,152.44 57.12,248.09l0 73.48 -780.11 0c5.54,102.19 36.83,181.84 93.95,238.98 57.12,57.12 133.56,85.83 229.24,85.83 66.23,0 122.39,-14.05 168.06,-41.77 45.7,-27.8 77.34,-68.57 94.69,-123.1l186.04 0c-23.79,101.2 -75.37,179.53 -154.03,235.03 -79.04,55.52 -176.67,83.24 -293.16,83.24zm-318.26 -612.05l597.37 0c-8.84,-80.64 -38.18,-142.95 -88.77,-187.74 -50.61,-44.71 -117.56,-66.86 -200.17,-66.86 -81.63,0 -149.48,22.15 -204.01,66.86 -54.54,44.79 -89.12,107.1 -104.41,187.74zm-8573.86 -1489.59l0 -1662.78c0,-79.38 19.38,-151.62 58.11,-216.53 38.79,-64.91 90.66,-116.76 155.55,-155.55 64.91,-38.72 137.07,-58.13 216.53,-58.13l1229.63 0c79.48,0 151.62,19.4 216.53,58.13 64.91,38.79 117.28,90.64 157,155.55 39.69,64.91 59.62,137.15 59.62,216.53l0 1662.78 -456.39 0 0 -674.35 -1186 0 0 674.35 -450.58 0zm450.58 -1127.89l1186 0 0 -511.56c0,0 0,0 0,0 0,0 0,0 0,0l-1186 0c0,0 0,0 0,0 0,0 0,0 0,0l0 511.56zm4331.4 1127.89l-607.57 -723.81 590.14 0 482.5 569.77 0 154.04 -465.07 0zm-1624.96 0l0 -2090.03 1659.84 0c79.46,0 151.62,19.3 216.53,58.11 64.89,38.81 117.28,91.1 156.98,157 39.69,65.88 59.64,137.59 59.64,215.1l0 540.69c0,77.51 -19.95,149.2 -59.64,215.1 -39.69,65.88 -92.08,118.19 -156.98,157 -64.91,38.7 -137.07,58.11 -216.53,58.11l-1209.24 2.86 0 686.07 -450.6 0zm450.6 -1142.38l1186 0c0,0 0,0 0,0 0,0 0,0 0,0l0 -497.07c0,0 0,0 0,0 0,0 0,0 0,0l-1186 0c0,0 0,0 0,0 0,0 0,0 0,0l0 497.07c0,0 0,0 0,0 0,0 0,0 0,0zm2686.05 1142.38l0 -1662.78c0,-79.38 19.4,-151.62 58.13,-216.53 38.79,-64.91 90.64,-116.76 155.55,-155.55 64.91,-38.72 137.07,-58.13 216.53,-58.13l1229.63 0c79.46,0 151.62,19.4 216.53,58.13 64.89,38.79 117.28,90.64 156.98,155.55 39.71,64.91 59.64,137.15 59.64,216.53l0 1662.78 -456.39 0 0 -674.35 -1186 0 0 674.35 -450.6 0zm450.6 -1127.89l1186 0 0 -511.56c0,0 0,0 0,0 0,0 0,0 0,0l-1186 0c0,0 0,0 0,0 0,0 0,0 0,0l0 511.56zm3136.64 1127.89c-79.49,0 -151.62,-19.4 -216.53,-58.11 -64.91,-38.81 -116.76,-90.66 -155.57,-155.57 -38.7,-64.91 -58.11,-137.05 -58.11,-216.53l0 -1232.57c0,-79.38 19.4,-151.62 58.11,-216.53 38.81,-64.91 90.66,-116.76 155.57,-155.55 64.91,-38.72 137.05,-58.13 216.53,-58.13l1229.63 0c79.46,0 151.62,19.4 216.53,58.13 64.89,38.79 117.28,90.64 156.98,155.55 39.69,64.91 59.64,137.15 59.64,216.53l0 197.67 -456.39 0 0 -174.34c0,0 0,0 0,0 0,0 0,0 0,0l-1186 0c0,0 0,0 0,0 0,0 0,0 0,0l0 1186c0,0 0,0 0,0 0,0 0,0 0,0l1186 0c0,0 0,0 0,0 0,0 0,0 0,0l0 -313.97 -453.54 0 0 -453.45 909.93 0 0 790.67c0,79.49 -19.95,151.62 -59.64,216.53 -39.69,64.91 -92.08,116.76 -156.98,155.57 -64.91,38.7 -137.07,58.11 -216.53,58.11l-1229.63 0zm2720.93 0l0 -2092.99 1933.03 0 0 453.54 -1476.64 0 0 366.2 1188.85 0 0 453.52 -1188.85 0 0 366.28 1476.64 0 0 453.45 -1933.03 0zm2898.29 0l0 -2092.99 465.07 0 709.32 845.92 706.36 -845.92 468.03 0 0 2092.99 -453.45 0 0 -1404.06 -720.93 860.5 -723.79 -857.54 0 1401.1 -450.6 0z"/>
 </g>
</svg>
