<?xml version="1.0" encoding="UTF-8"?>
<!DOCTYPE svg PUBLIC "-//W3C//DTD SVG 1.1//EN" "http://www.w3.org/Graphics/SVG/1.1/DTD/svg11.dtd">
<!-- Creator: CorelDRAW -->
<svg xmlns="http://www.w3.org/2000/svg" xml:space="preserve" width="210mm" height="297mm" version="1.1" style="shape-rendering:geometricPrecision; text-rendering:geometricPrecision; image-rendering:optimizeQuality; fill-rule:evenodd; clip-rule:evenodd"
viewBox="0 0 21000 4566.87"
 xmlns:xlink="http://www.w3.org/1999/xlink"
 xmlns:xodm="http://www.corel.com/coreldraw/odm/2003">
 <defs>
  <style type="text/css">
   <![CDATA[
    .fil0 {fill:url(#id0);fill-rule:nonzero}
   ]]>
  </style>
  <linearGradient id="id0" gradientUnits="userSpaceOnUse" x1="9657.96" y1="5569.6" x2="11312.07" y2="-1000.31">
   <stop offset="0" style="stop-opacity:1; stop-color:#EA348B"/>
   <stop offset="1" style="stop-opacity:1; stop-color:#D93030"/>
  </linearGradient>
 </defs>
 <g id="Camada_x0020_1">
  <metadata id="CorelCorpID_0Corel-Layer"/>
  <path class="fil0" d="M415.19 2094.2c-79.48,0 -151.62,-19.38 -216.53,-58.11 -64.91,-38.79 -116.76,-90.66 -155.55,-155.55 -38.72,-64.91 -58.13,-137.07 -58.13,-216.53l0 -1232.57c0,-79.4 19.4,-151.64 58.13,-216.53 38.79,-64.91 90.64,-116.76 155.55,-155.57 64.91,-38.7 137.05,-58.11 216.53,-58.11l1229.63 0c79.46,0 151.62,19.4 216.53,58.11 64.89,38.81 117.28,90.66 156.98,155.57 39.71,64.89 59.64,137.13 59.64,216.53l0 197.65 -456.39 0 0 -174.32c0,0 0,0 0,0 0,0 0,0 0,0l-1186 0c0,0 0,0 0,0 0,0 0,0 0,0l0 1186c0,0 0,0 0,0 0,0 0,0 0,0l1186 0c0,0 0,0 0,0 0,0 0,0 0,0l0 -313.97 -453.54 0 0 -453.45 909.93 0 0 790.67c0,79.46 -19.93,151.62 -59.64,216.53 -39.69,64.89 -92.09,116.76 -156.98,155.55 -64.91,38.72 -137.07,58.11 -216.53,58.11l-1229.63 0zm71.88 2101.66c-101.2,0 -189.36,-20.94 -264.37,-63.04 -75.1,-41.75 -133.2,-100.84 -174.68,-176.93 -41.5,-75.98 -62.06,-165.84 -62.06,-269.26 -0.99,-103.45 18.96,-193.28 60.44,-269.28 41.48,-76.08 99.85,-135.18 175.58,-177.28 75.45,-41.75 163.88,-62.66 265.08,-62.66 104.52,0 193.56,20.56 267.67,62.03 74.11,41.39 131.61,100.21 172.37,176.21 40.84,76.08 61.05,166.55 61.05,270.98 0.99,103.43 -18.94,193.28 -60.42,269.98 -41.39,76.71 -99.52,135.81 -174.61,177.2 -75.1,41.5 -163.86,62.06 -266.05,62.06zm0 -159.94c101.2,0 179.86,-30.68 236.02,-92.36 55.78,-61.42 83.85,-146.98 83.85,-256.93 0,-110.96 -28.08,-196.88 -83.85,-257.92 -56.15,-60.98 -134.82,-91.37 -236.02,-91.37 -100.23,0 -178.54,30.66 -235.03,92.08 -56.51,61.68 -84.84,147.23 -84.84,257.21 0,109.96 28.33,195.51 84.84,256.93 56.49,61.68 134.8,92.36 235.03,92.36zm887.12 532.1l0 -1181.69 -94.58 0 0 -189.36 195.78 0 0 150.19 68.59 0c32.61,-55.52 77.41,-97.63 133.83,-126.67 56.49,-28.71 124.09,-43.09 202.4,-43.09 98.87,0 182.83,20.56 251.39,62.03 68.48,41.39 121.04,100.21 157.63,176.21 36.2,76.08 54.54,166.55 54.54,270.98 0,104.41 -17.98,194.88 -53.93,270.96 -35.85,76 -87.07,134.82 -154.03,176.21 -66.86,41.5 -146.87,62.06 -239.23,62.06 -77.43,0 -144.65,-15.65 -202.4,-46.68 -57.85,-30.66 -101.2,-74.74 -130.62,-131.23l-6.53 0 0 550.07 -182.83 0zm478.3 -528.88c97.9,0 173.99,-30.93 227.81,-92.99 53.91,-62.03 80.64,-148.57 80.64,-259.52 0,-110.96 -26.73,-197.51 -80.64,-259.54 -53.82,-62.06 -129.91,-92.97 -227.81,-92.97 -89.12,0 -160.92,25.39 -214.47,76.69 -53.91,51.24 -81,119.09 -81,204.02l0 143.58c0,84.94 27.09,152.8 81,204.01 53.55,51.32 125.35,76.71 214.47,76.71zm1278.9 156.72c-102.19,0 -190.97,-20.94 -266.07,-63.04 -75.1,-41.75 -132.85,-101.2 -173.61,-178.52 -40.87,-77.34 -61.43,-167.45 -61.43,-270.98 0,-103.42 20.56,-192.84 61.43,-268.65 40.76,-75.37 97.88,-133.83 172.01,-175.22 74.11,-41.47 160.55,-62.03 259.52,-62.03 94.58,0 176.57,18.94 245.76,57.12 68.84,38.18 122.39,92.08 160.57,161.55 38.26,69.55 57.14,152.42 57.14,248.07l0 73.5 -780.13 0c5.54,102.19 36.83,181.84 93.95,238.96 57.14,57.14 133.58,85.83 229.24,85.83 66.26,0 122.39,-14.03 168.08,-41.75 45.67,-27.8 77.32,-68.57 94.67,-123.1l186.04 0c-23.77,101.2 -75.37,179.53 -154.03,235.03 -79.02,55.52 -176.65,83.24 -293.14,83.24zm-318.28 -612.05l597.39 0c-8.86,-80.64 -38.18,-142.95 -88.79,-187.74 -50.59,-44.71 -117.56,-66.88 -200.17,-66.88 -81.63,0 -149.48,22.18 -204.01,66.88 -54.54,44.79 -89.12,107.1 -104.41,187.74zm1158.11 592.45l0 -789.94 -94.58 0 0 -189.36 195.78 0 0 150.19 68.57 0c33.62,-54.54 80.01,-96.01 138.75,-125.08 58.74,-28.69 127.95,-43.09 207.33,-43.09 126.31,0 225.83,36.2 298.68,108.36 72.79,72.51 109.35,169.16 109.35,289.93l0 598.98 -182.83 0 0 -567.97c0,-88.14 -23.52,-155.11 -70.81,-200.78 -47.38,-45.7 -116.93,-68.59 -208.3,-68.59 -90.38,0 -159.33,22.89 -207.23,68.59 -48.03,45.68 -71.88,112.64 -71.88,200.78l0 567.97 -182.83 0zm2178.35 19.59c-136.16,0 -243.26,-28.43 -321.57,-84.84 -78.31,-56.51 -121.4,-135.53 -128.92,-236.65l181.12 0c7.52,59.72 33.62,103.78 78.41,132.13 44.69,28.43 110.31,42.46 197.48,42.46 152.42,0 228.5,-48.01 228.5,-143.66 0,-39.16 -11.8,-69.47 -34.94,-90.74 -23.52,-21.19 -63.04,-36.56 -118.55,-46.33l-213.76 -39.14c-181.86,-33.62 -272.6,-120.16 -272.6,-259.54 0,-90.47 34.25,-161.64 102.82,-213.84 68.56,-52.21 162.27,-78.31 280.73,-78.31 123.1,0 220.73,26.73 293.14,79.93 72.16,53.28 113.27,128.29 123.1,225.29l-177.89 0c-10.84,-54.54 -36.31,-94.69 -75.73,-120.79 -39.88,-26.1 -95.68,-39.14 -167.54,-39.14 -66.26,0 -117.83,11.44 -154.06,34.23 -36.56,22.89 -54.79,56.15 -54.79,99.6 0,33.6 11.7,60.06 35.22,78.94 23.16,19.3 61.07,33.7 113.27,43.45l213.84 40.76c95.57,17.35 165.75,48.36 210.55,93.07 44.71,44.69 66.86,104.5 66.86,179.51 0,95.66 -34.86,170.39 -104.41,223.69 -69.55,53.19 -169.76,79.93 -300.3,79.93zm1175.98 0c-101.2,0 -189.34,-20.94 -264.35,-63.04 -75.1,-41.75 -133.2,-100.84 -174.7,-176.93 -41.48,-75.98 -62.03,-165.84 -62.03,-269.26 -0.99,-103.45 18.94,-193.28 60.44,-269.28 41.48,-76.08 99.86,-135.18 175.58,-177.28 75.45,-41.75 163.86,-62.66 265.06,-62.66 104.52,0 193.56,20.56 267.67,62.03 74.13,41.39 131.61,100.21 172.37,176.21 40.87,76.08 61.07,166.55 61.07,270.98 0.99,103.43 -18.96,193.28 -60.44,269.98 -41.39,76.71 -99.5,135.81 -174.59,177.2 -75.1,41.5 -163.88,62.06 -266.07,62.06zm0 -159.94c101.22,0 179.89,-30.68 236.02,-92.36 55.8,-61.42 83.87,-146.98 83.87,-256.93 0,-110.96 -28.08,-196.88 -83.87,-257.92 -56.13,-60.98 -134.8,-91.37 -236.02,-91.37 -100.21,0 -178.52,30.66 -235.03,92.08 -56.49,61.68 -84.84,147.23 -84.84,257.21 0,109.96 28.35,195.51 84.84,256.93 56.51,61.68 134.82,92.36 235.03,92.36zm1242.95 158.32c-126.32,0 -225.2,-35.32 -296.98,-105.48 -71.88,-70.18 -107.73,-164.51 -107.73,-282.95l0 -608.83 182.83 0 0 569.67c0,88.05 22.81,154.66 68.48,199.71 45.67,45.42 112.01,67.96 199.18,67.96 92.36,0 164.14,-23.52 214.75,-71.17 50.59,-47.02 75.73,-113.27 75.73,-198.2l0 -567.97 182.83 0 0 789.96 94.67 0 0 189.34 -195.87 0 0 -150.19 -68.59 0c-34.86,54.54 -81.52,96.01 -140.36,124.72 -58.74,29.06 -128.29,43.45 -208.93,43.45zm986.73 -17.98l0 -789.94 -94.67 0 0 -189.36 195.87 0 0 182.83 68.59 0c27.09,-59.72 69.55,-106.74 126.67,-140.36 57.12,-33.62 124,-50.59 201.43,-50.59l79.93 0 0 156.62 -89.77 0c-97.88,0 -173.61,28.79 -226.91,86.54 -53.19,57.75 -79.91,135.45 -79.91,233.44l0 510.83 -181.23 0zm1270.84 19.59c-98.95,0 -185.41,-20.94 -259.52,-63.04 -74.11,-41.75 -131.25,-100.84 -172.01,-176.93 -40.87,-75.98 -61.43,-165.84 -61.43,-269.26 0,-103.45 20.2,-193.28 60.44,-269.28 40.15,-76.08 97.27,-135.18 171.38,-177.28 74.02,-41.75 160.92,-62.66 261.13,-62.66 119.81,0 219.66,29.67 299.69,88.77 79.93,59.45 132.13,144.65 157.25,255.59l-184.44 0c-18.59,-63.02 -50.23,-109.68 -95.3,-139.73 -45.32,-29.67 -104.41,-44.69 -177.2,-44.69 -97,0 -172.72,30.39 -227.51,91.37 -55.17,61.05 -82.61,146.96 -82.61,257.92 0,109.96 27.45,195.51 82.61,256.93 54.79,61.68 130.51,92.36 227.51,92.36 151.1,0 244.17,-66.97 279.03,-200.8l184.44 0c-23.79,116.57 -76,205.72 -156.64,267.67 -80.64,62.03 -182.83,93.07 -306.83,93.07zm1202.19 0c-102.19,0 -190.95,-20.94 -266.05,-63.04 -75.1,-41.75 -132.87,-101.2 -173.63,-178.52 -40.84,-77.34 -61.42,-167.45 -61.42,-270.98 0,-103.42 20.58,-192.84 61.42,-268.65 40.76,-75.37 97.9,-133.83 172.01,-175.22 74.11,-41.47 160.57,-62.03 259.54,-62.03 94.58,0 176.57,18.94 245.76,57.12 68.84,38.18 122.39,92.08 160.57,161.55 38.26,69.55 57.12,152.42 57.12,248.07l0 73.5 -780.11 0c5.54,102.19 36.83,181.84 93.95,238.96 57.12,57.14 133.56,85.83 229.22,85.83 66.25,0 122.41,-14.03 168.08,-41.75 45.68,-27.8 77.34,-68.57 94.67,-123.1l186.06 0c-23.79,101.2 -75.37,179.53 -154.03,235.03 -79.04,55.52 -176.67,83.24 -293.16,83.24zm-318.28 -612.05l597.39 0c-8.84,-80.64 -38.18,-142.95 -88.77,-187.74 -50.61,-44.71 -117.58,-66.88 -200.17,-66.88 -81.63,0 -149.48,22.18 -204.01,66.88 -54.54,44.79 -89.15,107.1 -104.43,187.74zm-8573.86 -1489.61l0 -1662.76c0,-79.4 19.4,-151.64 58.11,-216.53 38.81,-64.91 90.66,-116.76 155.57,-155.57 64.91,-38.7 137.05,-58.11 216.53,-58.11l1229.63 0c79.46,0 151.62,19.4 216.53,58.11 64.89,38.81 117.28,90.66 156.97,155.57 39.69,64.89 59.64,137.13 59.64,216.53l0 1662.76 -456.39 0 0 -674.35 -1186 0 0 674.35 -450.6 0zm450.6 -1127.89l1186 0 0 -511.54c0,0 0,0 0,0 0,0 0,0 0,0l-1186 0c0,0 0,0 0,0 0,0 0,0 0,0l0 511.54zm4331.4 1127.89l-607.57 -723.79 590.14 0 482.5 569.75 0 154.03 -465.07 0zm-1624.96 0l0 -2090.03 1659.82 0c79.48,0 151.64,19.32 216.53,58.13 64.91,38.79 117.31,91.1 157,156.97 39.69,65.9 59.64,137.59 59.64,215.1l0 540.71c0,77.51 -19.95,149.2 -59.64,215.1 -39.69,65.88 -92.08,118.19 -157,156.97 -64.89,38.72 -137.05,58.11 -216.53,58.11l-1209.24 2.88 0 686.05 -450.58 0zm450.58 -1142.36l1186.02 0c0,0 0,0 0,0 0,0 0,0 0,0l0 -497.07c0,0 0,0 0,0 0,0 0,0 0,0l-1186.02 0c0,0 0,0 0,0 0,0 0,0 0,0l0 497.07c0,0 0,0 0,0 0,0 0,0 0,0zm2686.07 1142.36l0 -1662.76c0,-79.4 19.4,-151.64 58.11,-216.53 38.81,-64.91 90.66,-116.76 155.57,-155.57 64.91,-38.7 137.05,-58.11 216.53,-58.11l1229.63 0c79.46,0 151.62,19.4 216.53,58.11 64.89,38.81 117.28,90.66 156.98,155.57 39.71,64.89 59.64,137.13 59.64,216.53l0 1662.76 -456.39 0 0 -674.35 -1186 0 0 674.35 -450.6 0zm450.6 -1127.89l1186 0 0 -511.54c0,0 0,0 0,0 0,0 0,0 0,0l-1186 0c0,0 0,0 0,0 0,0 0,0 0,0l0 511.54zm3136.64 1127.89c-79.49,0 -151.62,-19.38 -216.53,-58.11 -64.91,-38.79 -116.76,-90.66 -155.57,-155.55 -38.7,-64.91 -58.11,-137.07 -58.11,-216.53l0 -1232.57c0,-79.4 19.4,-151.64 58.11,-216.53 38.81,-64.91 90.66,-116.76 155.57,-155.57 64.91,-38.7 137.05,-58.11 216.53,-58.11l1229.63 0c79.46,0 151.62,19.4 216.53,58.11 64.89,38.81 117.28,90.66 156.98,155.57 39.69,64.89 59.64,137.13 59.64,216.53l0 197.65 -456.39 0 0 -174.32c0,0 0,0 0,0 0,0 0,0 0,0l-1186 0c0,0 0,0 0,0 0,0 0,0 0,0l0 1186c0,0 0,0 0,0 0,0 0,0 0,0l1186 0c0,0 0,0 0,0 0,0 0,0 0,0l0 -313.97 -453.54 0 0 -453.45 909.93 0 0 790.67c0,79.46 -19.95,151.62 -59.64,216.53 -39.69,64.89 -92.08,116.76 -156.98,155.55 -64.91,38.72 -137.07,58.11 -216.53,58.11l-1229.63 0zm2720.93 0l0 -2092.97 1933.03 0 0 453.54 -1476.64 0 0 366.18 1188.87 0 0 453.54 -1188.87 0 0 366.28 1476.64 0 0 453.43 -1933.03 0zm2898.31 0l0 -2092.97 465.07 0 709.3 845.92 706.38 -845.92 468.01 0 0 2092.97 -453.45 0 0 -1404.04 -720.93 860.5 -723.79 -857.56 0 1401.1 -450.58 0z"/>
 </g>
</svg>
