<?xml version="1.0" encoding="UTF-8"?>
<!DOCTYPE svg PUBLIC "-//W3C//DTD SVG 1.1//EN" "http://www.w3.org/Graphics/SVG/1.1/DTD/svg11.dtd">
<!-- Creator: CorelDRAW -->
<svg xmlns="http://www.w3.org/2000/svg" xml:space="preserve" width="210mm" height="297mm" version="1.1" style="shape-rendering:geometricPrecision; text-rendering:geometricPrecision; image-rendering:optimizeQuality; fill-rule:evenodd; clip-rule:evenodd"
viewBox="0 0 21000 3599.19"
 xmlns:xlink="http://www.w3.org/1999/xlink"
 xmlns:xodm="http://www.corel.com/coreldraw/odm/2003">
 <defs>
  <style type="text/css">
   <![CDATA[
    .fil0 {fill:url(#id0)}
   ]]>
  </style>
  <linearGradient id="id0" gradientUnits="userSpaceOnUse" x1="9805.51" y1="4452.44" x2="10841.94" y2="-851.03">
   <stop offset="0" style="stop-opacity:1; stop-color:#EA348B"/>
   <stop offset="1" style="stop-opacity:1; stop-color:#D93030"/>
  </linearGradient>
 </defs>
 <g id="Camada_x0020_1">
  <metadata id="CorelCorpID_0Corel-Layer"/>
  <path class="fil0" d="M1562.34 3474.64l630.04 0c520.53,0 946.3,-425.84 946.3,-946.32 0,-303.6 -10,-619.46 -298.37,-915.24 -177.97,-182.55 -417.54,-288.88 -674.14,-284.3l-1285.79 23.12c-313.8,-18.46 -545.48,253.3 -540.06,555.49 4.79,269.14 198.49,513.07 467.57,536.53l1377.87 -23.81c940.74,-16.21 735.5,904.89 0.69,904.89l-624.12 0c-763.27,0 -1391.94,-608.27 -1425.27,-1363.72 0,-468.47 409.98,-817.45 864.78,-817.45 468.61,0 735.17,1.62 1203.64,1.62 283.88,0 547.45,-211.72 547.45,-509.33 0,-295.58 -261.39,-509.33 -547.45,-509.33l-21.99 0c-293.45,0 -384.61,0.71 -678.15,1.13 -1033.75,37.19 -1562.32,888.17 -1517.65,1844.01 39.25,838.66 738.25,1502.72 1574.64,1502.72zm9152.07 -2366.95l0 1.13 -16.97 0 356.01 420.42 0 121.4 -366.51 0 -454.82 -541.82 5.8 0 -476.51 1.11 0 540.71 -355.11 0 0 -1647.18 1308.11 0c62.64,0 119.49,15.22 170.65,45.8 51.16,30.58 92.44,71.8 123.73,123.73 31.29,51.93 47,108.42 47,169.51l0 426.13c0,61.09 -15.71,117.6 -47,169.53 -31.29,51.91 -72.58,93.13 -123.73,123.71 -51.16,30.51 -108,45.8 -170.65,45.8zm-5940.54 542.96c-62.64,0 -119.49,-15.29 -170.65,-45.8 -51.16,-30.58 -92.02,-71.44 -122.6,-122.6 -30.51,-51.16 -45.8,-108.02 -45.8,-170.65l0 -971.4c0,-62.58 15.29,-119.51 45.8,-170.65 30.58,-51.16 71.44,-92.02 122.6,-122.6 51.16,-30.51 108,-45.8 170.65,-45.8l969.07 0c62.64,0 119.49,15.29 170.65,45.8 51.16,30.58 92.44,71.44 123.73,122.6 31.29,51.13 47,108.07 47,170.65l0 155.78 -359.69 0 0 -137.4c0,0 0,0 0,0 0,0 0,0 0,0l-934.69 0c0,0 0,0 0,0 0,0 0,0 0,0l0 934.69c0,0 0,0 0,0 0,0 0,0 0,0l934.69 0c0,0 0,0 0,0 0,0 0,0 0,0l0 -247.44 -357.44 0 0 -357.36 717.13 0 0 623.13c0,62.62 -15.71,119.49 -47,170.65 -31.29,51.16 -72.58,92.02 -123.73,122.6 -51.16,30.51 -108,45.8 -170.65,45.8l-969.07 0zm56.64 1656.31c-79.76,0 -149.23,-16.49 -208.34,-49.69 -59.18,-32.89 -104.98,-79.46 -137.65,-139.42 -32.7,-59.89 -48.91,-130.7 -48.91,-212.23 -0.78,-81.52 14.93,-152.33 47.63,-212.23 32.7,-59.95 78.71,-106.53 138.39,-139.71 59.45,-32.91 129.13,-49.39 208.89,-49.39 82.38,0 152.54,16.21 210.97,48.91 58.4,32.61 103.7,78.98 135.83,138.87 32.21,59.95 48.13,131.25 48.13,213.55 0.78,81.52 -14.93,152.33 -47.63,212.79 -32.63,60.44 -78.41,107.02 -137.61,139.63 -59.18,32.7 -129.15,48.91 -209.68,48.91zm0 -126.04c79.76,0 141.77,-24.17 186.02,-72.79 43.97,-48.41 66.09,-115.84 66.09,-202.5 0,-87.44 -22.11,-155.15 -66.09,-203.26 -44.25,-48.07 -106.26,-72.01 -186.02,-72.01 -78.98,0 -140.7,24.15 -185.22,72.55 -44.54,48.62 -66.86,116.05 -66.86,202.71 0,86.67 22.32,154.1 66.86,202.5 44.52,48.61 106.24,72.79 185.22,72.79zm699.15 419.35l0 -931.31 -74.53 0 0 -149.23 154.29 0 0 118.38 54.05 0c25.7,-43.76 61,-76.94 105.46,-99.86 44.54,-22.62 97.8,-33.96 159.52,-33.96 77.93,0 144.08,16.21 198.13,48.91 53.97,32.61 95.4,78.98 124.22,138.87 28.54,59.95 42.99,131.25 42.99,213.55 0,82.3 -14.18,153.59 -42.5,213.55 -28.24,59.89 -68.63,106.26 -121.38,138.87 -52.71,32.7 -115.77,48.91 -188.56,48.91 -61.01,0 -113.99,-12.33 -159.52,-36.79 -45.59,-24.15 -79.76,-58.88 -102.94,-103.43l-5.15 0 0 433.52 -144.08 0zm376.95 -416.83c77.15,0 137.11,-24.38 179.53,-73.27 42.48,-48.89 63.55,-117.1 63.55,-204.54 0,-87.44 -21.06,-155.63 -63.55,-204.54 -42.42,-48.89 -102.38,-73.27 -179.53,-73.27 -70.24,0 -126.82,20.01 -169.03,60.44 -42.48,40.38 -63.84,93.87 -63.84,160.8l0 113.15c0,66.95 21.36,120.41 63.84,160.8 42.21,40.42 98.78,60.44 169.03,60.44zm1007.9 123.52c-80.54,0 -150.49,-16.49 -209.69,-49.69 -59.18,-32.89 -104.68,-79.76 -136.81,-140.7 -32.21,-60.94 -48.41,-131.96 -48.41,-213.55 0,-81.52 16.19,-151.98 48.41,-211.72 32.13,-59.41 77.13,-105.48 135.55,-138.1 58.4,-32.7 126.55,-48.91 204.54,-48.91 74.53,0 139.15,14.95 193.68,45.02 54.24,30.09 96.45,72.58 126.55,127.32 30.16,54.81 45.02,120.12 45.02,195.51l0 57.92 -614.82 0c4.37,80.53 29.02,143.32 74.05,188.35 45.02,45 105.27,67.62 180.66,67.62 52.21,0 96.45,-11.05 132.45,-32.89 36.01,-21.92 60.94,-54.05 74.61,-97.02l146.62 0c-18.73,79.76 -59.39,141.48 -121.38,185.22 -62.29,43.76 -139.23,65.6 -231.04,65.6zm-250.82 -482.35l470.8 0c-6.97,-63.57 -30.09,-112.66 -69.97,-147.97 -39.88,-35.24 -92.65,-52.71 -157.75,-52.71 -64.32,0 -117.81,17.47 -160.78,52.71 -42.99,35.3 -70.24,84.4 -82.3,147.97zm912.7 466.91l0 -622.57 -74.55 0 0 -149.23 154.31 0 0 118.38 54.03 0c26.5,-42.99 63.06,-75.68 109.37,-98.57 46.28,-22.62 100.82,-33.96 163.38,-33.96 99.56,0 177.98,28.52 235.39,85.39 57.37,57.14 86.18,133.31 86.18,228.5l0 472.06 -144.08 0 0 -447.62c0,-69.47 -18.54,-122.24 -55.82,-158.26 -37.34,-35.99 -92.15,-54.03 -164.16,-54.03 -71.23,0 -125.56,18.04 -163.32,54.03 -37.84,36.01 -56.66,88.79 -56.66,158.26l0 447.62 -144.08 0zm1716.77 15.43c-107.31,0 -191.71,-22.41 -253.45,-66.86 -61.72,-44.54 -95.68,-106.83 -101.6,-186.5l142.76 0c5.92,47.06 26.48,81.8 61.78,104.14 35.24,22.41 86.94,33.45 155.65,33.45 120.12,0 180.07,-37.82 180.07,-113.21 0,-30.87 -9.28,-54.75 -27.53,-71.53 -18.54,-16.7 -49.69,-28.81 -93.43,-36.5l-168.46 -30.85c-143.33,-26.5 -214.83,-94.71 -214.83,-204.54 0,-71.32 26.98,-127.39 81.02,-168.55 54.05,-41.14 127.89,-61.72 221.23,-61.72 97.02,0 173.96,21.06 231.04,63 56.85,41.98 89.27,101.09 97.02,177.56l-140.22 0c-8.53,-42.99 -28.6,-74.61 -59.68,-95.19 -31.42,-20.58 -75.39,-30.87 -132.03,-30.87 -52.21,0 -92.86,9.03 -121.4,26.99 -28.81,18.04 -43.2,44.25 -43.2,78.5 0,26.48 9.24,47.36 27.76,62.22 18.25,15.2 48.13,26.54 89.27,34.23l168.53 32.13c75.33,13.67 130.64,38.11 165.94,73.35 35.22,35.22 52.69,82.36 52.69,141.48 0,75.39 -27.47,134.3 -82.28,176.27 -54.83,41.94 -133.81,63 -236.67,63zm926.79 0c-79.76,0 -149.23,-16.49 -208.34,-49.69 -59.18,-32.89 -104.98,-79.46 -137.68,-139.42 -32.7,-59.89 -48.89,-130.7 -48.89,-212.23 -0.78,-81.52 14.93,-152.33 47.63,-212.23 32.68,-59.95 78.69,-106.53 138.37,-139.71 59.47,-32.91 129.15,-49.39 208.91,-49.39 82.36,0 152.54,16.21 210.94,48.91 58.42,32.61 103.72,78.98 135.85,138.87 32.19,59.95 48.11,131.25 48.11,213.55 0.78,81.52 -14.93,152.33 -47.63,212.79 -32.61,60.44 -78.41,107.02 -137.59,139.63 -59.2,32.7 -129.15,48.91 -209.69,48.91zm0 -126.04c79.76,0 141.75,-24.17 186,-72.79 43.97,-48.41 66.11,-115.84 66.11,-202.5 0,-87.44 -22.13,-155.15 -66.11,-203.26 -44.25,-48.07 -106.24,-72.01 -186,-72.01 -78.98,0 -140.7,24.15 -185.24,72.55 -44.52,48.62 -66.86,116.05 -66.86,202.71 0,86.67 22.34,154.1 66.86,202.5 44.54,48.61 106.26,72.79 185.24,72.79zm979.57 124.76c-99.56,0 -177.47,-27.83 -234.07,-83.14 -56.64,-55.29 -84.88,-129.63 -84.88,-223l0 -479.81 144.08 0 0 448.96c0,69.41 17.95,121.88 53.97,157.39 35.99,35.81 88.28,53.55 156.98,53.55 72.79,0 129.36,-18.52 169.24,-56.09 39.88,-37.04 59.68,-89.25 59.68,-156.2l0 -447.62 144.08 0 0 622.57 74.61 0 0 149.23 -154.37 0 0 -118.38 -54.03 0c-27.49,42.99 -64.26,75.68 -110.63,98.3 -46.28,22.89 -101.11,34.23 -164.66,34.23zm777.65 -14.15l0 -622.57 -74.63 0 0 -149.23 154.39 0 0 144.08 54.03 0c21.36,-47.06 54.81,-84.13 99.83,-110.61 45.02,-26.5 97.73,-39.88 158.74,-39.88l63 0 0 123.44 -70.75 0c-77.15,0 -136.84,22.68 -178.82,68.21 -41.92,45.51 -63,106.74 -63,183.96l0 402.59 -142.8 0zm1001.55 15.43c-78.01,0 -146.14,-16.49 -204.54,-49.69 -58.42,-32.89 -103.45,-79.46 -135.58,-139.42 -32.19,-59.89 -48.41,-130.7 -48.41,-212.23 0,-81.52 15.94,-152.33 47.63,-212.23 31.65,-59.95 76.67,-106.53 135.07,-139.71 58.34,-32.91 126.82,-49.39 205.82,-49.39 94.4,0 173.1,23.39 236.17,69.97 62.98,46.85 104.14,113.99 123.94,201.43l-145.36 0c-14.66,-49.66 -39.61,-86.46 -75.12,-110.12 -35.72,-23.39 -82.28,-35.22 -139.63,-35.22 -76.46,0 -136.14,23.94 -179.32,72.01 -43.47,48.11 -65.1,115.82 -65.1,203.26 0,86.67 21.63,154.1 65.1,202.5 43.18,48.61 102.86,72.79 179.32,72.79 119.07,0 192.4,-52.77 219.89,-158.26l145.34 0c-18.73,91.88 -59.87,162.12 -123.44,210.95 -63.55,48.91 -144.08,73.35 -241.79,73.35zm947.44 0c-80.53,0 -150.51,-16.49 -209.68,-49.69 -59.18,-32.89 -104.71,-79.76 -136.84,-140.7 -32.19,-60.94 -48.41,-131.96 -48.41,-213.55 0,-81.52 16.21,-151.98 48.41,-211.72 32.13,-59.41 77.15,-105.48 135.58,-138.1 58.4,-32.7 126.52,-48.91 204.52,-48.91 74.55,0 139.17,14.95 193.7,45.02 54.24,30.09 96.45,72.58 126.53,127.32 30.16,54.81 45.02,120.12 45.02,195.51l0 57.92 -614.8 0c4.37,80.53 29.02,143.32 74.05,188.35 45.02,45 105.25,67.62 180.64,67.62 52.21,0 96.47,-11.05 132.47,-32.89 35.99,-21.92 60.94,-54.05 74.61,-97.02l146.62 0c-18.73,79.76 -59.39,141.48 -121.4,185.22 -62.29,43.76 -139.23,65.6 -231.02,65.6zm-250.82 -482.35l470.78 0c-6.97,-63.57 -30.07,-112.66 -69.95,-147.97 -39.88,-35.24 -92.65,-52.71 -157.75,-52.71 -64.34,0 -117.81,17.47 -160.8,52.71 -42.97,35.3 -70.24,84.4 -82.28,147.97zm-6757.09 -1173.96l0 -1310.44c0,-62.58 15.29,-119.51 45.8,-170.65 30.58,-51.16 71.44,-92.02 122.6,-122.6 51.14,-30.51 108,-45.8 170.65,-45.8l969.07 0c62.64,0 119.49,15.29 170.65,45.8 51.16,30.58 92.44,71.44 123.73,122.6 31.27,51.13 47,108.07 47,170.65l0 1310.44 -359.69 0 0 -531.47 -934.69 0 0 531.47 -355.11 0zm355.11 -888.91l934.69 0 0 -403.16c0,0 0,0 0,0 0,0 0,0 0,0l-934.69 0c0,0 0,0 0,0 0,0 0,0 0,0l0 403.16zm2488.06 -11.4l934.69 0c0,0 0,0 0,0 0,0 0,0 0,0l0 -391.75c0,0 0,0 0,0 0,0 0,0 0,0l-934.69 0c0,0 0,0 0,0 0,0 0,0 0,0l0 391.75c0,0 0,0 0,0 0,0 0,0 0,0zm2116.88 900.31l0 -1310.44c0,-62.58 15.29,-119.51 45.8,-170.65 30.58,-51.16 71.44,-92.02 122.6,-122.6 51.16,-30.51 108,-45.8 170.65,-45.8l969.07 0c62.64,0 119.51,15.29 170.65,45.8 51.16,30.58 92.44,71.44 123.73,122.6 31.29,51.13 47,108.07 47,170.65l0 1310.44 -359.69 0 0 -531.47 -934.69 0 0 531.47 -355.11 0zm355.11 -888.91l934.69 0 0 -403.16c0,0 0,0 0,0 0,0 0,0 0,0l-934.69 0c0,0 0,0 0,0 0,0 0,0 0,0l0 403.16zm2471.99 888.91c-62.62,0 -119.49,-15.29 -170.65,-45.8 -51.16,-30.58 -92.02,-71.44 -122.6,-122.6 -30.49,-51.16 -45.78,-108.02 -45.78,-170.65l0 -971.4c0,-62.58 15.29,-119.51 45.78,-170.65 30.58,-51.16 71.44,-92.02 122.6,-122.6 51.16,-30.51 108.02,-45.8 170.65,-45.8l969.09 0c62.62,0 119.49,15.29 170.65,45.8 51.13,30.58 92.44,71.44 123.71,122.6 31.29,51.13 47,108.07 47,170.65l0 155.78 -359.69 0 0 -137.4c0,0 0,0 0,0 0,0 0,0 0,0l-934.69 0c0,0 0,0 0,0 0,0 0,0 0,0l0 934.69c0,0 0,0 0,0 0,0 0,0 0,0l934.69 0c0,0 0,0 0,0 0,0 0,0 0,0l0 -247.44 -357.42 0 0 -357.36 717.11 0 0 623.13c0,62.62 -15.71,119.49 -47,170.65 -31.27,51.16 -72.58,92.02 -123.71,122.6 -51.16,30.51 -108.02,45.8 -170.65,45.8l-969.09 0zm2144.37 0l0 -1649.49 1523.44 0 0 357.42 -1163.76 0 0 288.6 936.94 0 0 357.42 -936.94 0 0 288.67 1163.76 0 0 357.38 -1523.44 0zm2284.17 0l0 -1649.49 366.51 0 559.02 666.67 556.67 -666.67 368.84 0 0 1649.49 -357.36 0 0 -1106.55 -568.16 678.15 -570.42 -675.82 0 1104.22 -355.11 0zm-18264.9 -77.3c178.75,0 323.61,144.8 323.61,323.55 0,178.67 -144.86,323.61 -323.61,323.61 -178.67,0 -323.55,-144.94 -323.55,-323.61 0,-178.75 144.88,-323.55 323.55,-323.55zm1329.11 -1264.07c178.69,0 323.61,144.86 323.61,323.53 0,178.75 -144.92,323.63 -323.61,323.63 -178.69,0 -323.61,-144.88 -323.61,-323.63 0,-178.67 144.92,-323.53 323.61,-323.53z"/>
 </g>
</svg>
