<?xml version="1.0" encoding="UTF-8"?>
<!DOCTYPE svg PUBLIC "-//W3C//DTD SVG 1.1//EN" "http://www.w3.org/Graphics/SVG/1.1/DTD/svg11.dtd">
<!-- Creator: CorelDRAW -->
<svg xmlns="http://www.w3.org/2000/svg" xml:space="preserve" width="210mm" height="297mm" version="1.1" style="shape-rendering:geometricPrecision; text-rendering:geometricPrecision; image-rendering:optimizeQuality; fill-rule:evenodd; clip-rule:evenodd"
viewBox="0 0 21000 4603.41"
 xmlns:xlink="http://www.w3.org/1999/xlink"
 xmlns:xodm="http://www.corel.com/coreldraw/odm/2003">
 <defs>
  <style type="text/css">
   <![CDATA[
    .fil0 {fill:#212121;fill-rule:nonzero}
   ]]>
  </style>
 </defs>
 <g id="Camada_x0020_1">
  <metadata id="CorelCorpID_0Corel-Layer"/>
  <path class="fil0" d="M6470.54 2168.48c-56.09,0 -106.99,-13.69 -152.8,-41.01 -45.8,-27.36 -82.38,-63.97 -109.77,-109.75 -27.3,-45.8 -40.99,-96.73 -40.99,-152.8l0 -869.74c0,-56.01 13.69,-106.99 40.99,-152.8 27.38,-45.78 63.97,-82.38 109.77,-109.75 45.8,-27.32 96.7,-41.01 152.8,-41.01l867.64 0c56.09,0 107,13.69 152.8,41.01 45.8,27.36 82.76,63.97 110.77,109.75 28.01,45.8 42.08,96.79 42.08,152.8l0 139.48 -322.06 0 0 -123.02c0,0 0,0 0,0 0,0 0,0 0,0l-836.85 0c0,0 0,0 0,0 0,0 0,0 0,0l0 836.87c0,0 0,0 0,0 0,0 0,0 0,0l836.85 0c0,0 0,0 0,0 0,0 0,0 0,0l0 -221.55 -320.02 0 0 -319.96 642.08 0 0 557.91c0,56.07 -14.07,106.99 -42.08,152.8 -28.01,45.78 -64.97,82.38 -110.77,109.75 -45.8,27.32 -96.7,41.01 -152.8,41.01l-867.64 0zm-4183.77 -2167.37c1271.19,0 2301.73,1030.53 2301.73,2301.66 0,1271.28 -1030.53,2301.73 -2301.73,2301.73 -1271.19,0 -2301.73,-1030.45 -2301.73,-2301.73 0,-1271.13 1030.53,-2301.66 2301.73,-2301.66zm-194.67 3789.24l556.4 0c459.69,0 835.74,-376.09 835.74,-835.72 0,-268.04 -8.9,-547.01 -263.51,-808.23 -157.27,-161.2 -368.72,-255.11 -595.37,-250.95l-1135.45 20.37c-277.12,-16.34 -481.7,223.63 -476.91,490.54 4.22,237.64 175.24,453.01 412.88,473.76l1216.76 -21c830.8,-14.32 649.57,799.07 0.63,799.07l-551.17 0c-674.04,0 -1229.24,-537.1 -1258.64,-1204.33 0,-413.64 362.1,-721.79 763.75,-721.79 413.83,0 649.19,1.45 1062.89,1.45 250.7,0 483.46,-186.98 483.46,-449.8 0,-261.03 -230.87,-449.84 -483.46,-449.84l-19.42 0c-259.1,0 -339.65,0.63 -598.86,1.01 -912.95,32.87 -1379.64,784.31 -1340.28,1628.38 34.71,740.65 651.97,1327.07 1390.56,1327.07zm-612.23 -1679.03c157.9,0 285.77,127.87 285.77,285.7 0,157.9 -127.87,285.83 -285.77,285.83 -157.77,0 -285.64,-127.93 -285.64,-285.83 0,-157.84 127.87,-285.7 285.64,-285.7zm1173.73 -1116.26c157.84,0 285.77,127.93 285.77,285.7 0,157.9 -127.93,285.83 -285.77,285.83 -157.84,0 -285.7,-127.93 -285.7,-285.83 0,-157.77 127.87,-285.7 285.7,-285.7zm3867.65 2656.37c-71.42,0 -133.6,-14.74 -186.54,-44.46 -52.98,-29.46 -94,-71.17 -123.27,-124.84 -29.25,-53.63 -43.76,-117.03 -43.76,-190.01 -0.69,-73 13.38,-136.39 42.63,-190.01 29.27,-53.7 70.48,-95.38 123.9,-125.1 53.26,-29.46 115.63,-44.23 187.05,-44.23 73.75,0 136.58,14.51 188.87,43.78 52.29,29.21 92.86,70.71 121.63,124.34 28.81,53.68 43.07,117.52 43.07,191.21 0.69,72.97 -13.38,136.37 -42.63,190.51 -29.21,54.12 -70.22,95.82 -123.21,125.03 -53,29.27 -115.63,43.76 -187.74,43.76zm0 -112.85c71.4,0 126.92,-21.63 166.53,-65.16 39.38,-43.32 59.18,-103.7 59.18,-181.29 0,-78.29 -19.8,-138.92 -59.18,-182.01 -39.61,-43.01 -95.13,-64.47 -166.53,-64.47 -70.71,0 -125.98,21.65 -165.84,64.97 -39.88,43.53 -59.87,103.91 -59.87,181.5 0,77.59 19.99,137.97 59.87,181.29 39.86,43.53 95.13,65.16 165.84,65.16zm625.97 375.48l0 -833.85 -66.74 0 0 -133.6 138.16 0 0 105.99 48.38 0c23.02,-39.19 54.62,-68.9 94.44,-89.4 39.86,-20.24 87.55,-30.41 142.82,-30.41 69.76,0 129,14.51 177.39,43.78 48.32,29.21 85.41,70.71 111.22,124.34 25.56,53.68 38.47,117.52 38.47,191.21 0,73.67 -12.66,137.51 -38.03,191.2 -25.31,53.61 -61.45,95.13 -108.7,124.34 -47.19,29.27 -103.64,43.76 -168.8,43.76 -54.64,0 -102.08,-11.03 -142.82,-32.93 -40.82,-21.63 -71.42,-52.73 -92.17,-92.59l-4.6 0 0 388.14 -129.02 0zm337.51 -373.21c69.07,0 122.74,-21.82 160.73,-65.6 38.03,-43.76 56.89,-104.83 56.89,-183.12 0,-78.29 -18.86,-139.36 -56.89,-183.14 -37.99,-43.76 -91.66,-65.6 -160.73,-65.6 -62.89,0 -113.57,17.91 -151.35,54.14 -38.03,36.14 -57.14,84.02 -57.14,143.96l0 101.3c0,59.93 19.11,107.81 57.14,143.95 37.78,36.2 88.45,54.12 151.35,54.12zm902.39 110.59c-72.09,0 -134.74,-14.74 -187.72,-44.46 -53,-29.46 -93.74,-71.42 -122.51,-125.98 -28.83,-54.58 -43.34,-118.17 -43.34,-191.2 0,-73 14.51,-136.08 43.34,-189.57 28.77,-53.19 69.07,-94.44 121.38,-123.65 52.29,-29.27 113.3,-43.78 183.12,-43.78 66.74,0 124.59,13.38 173.42,40.32 48.57,26.92 86.35,64.97 113.3,113.99 27.01,49.08 40.32,107.56 40.32,175.06l0 51.85 -550.47 0c3.91,72.11 26,128.31 66.3,168.63 40.32,40.3 94.25,60.56 161.74,60.56 46.75,0 86.37,-9.91 118.61,-29.46 32.23,-19.61 54.56,-48.38 66.8,-86.88l131.27 0c-16.78,71.42 -53.17,126.67 -108.68,165.86 -55.78,39.16 -124.66,58.72 -206.87,58.72zm-224.57 -431.87l421.53 0c-6.24,-56.89 -26.94,-100.86 -62.64,-132.47 -35.7,-31.54 -82.95,-47.19 -141.25,-47.19 -57.6,0 -105.48,15.64 -143.95,47.19 -38.47,31.61 -62.9,75.58 -73.69,132.47zm817.19 418.07l0 -557.42 -66.74 0 0 -133.6 138.14 0 0 105.99 48.38 0c23.73,-38.49 56.47,-67.77 97.92,-88.26 41.43,-20.24 90.26,-30.41 146.29,-30.41 89.12,0 159.35,25.56 210.76,76.46 51.35,51.16 77.15,119.36 77.15,204.58l0 422.67 -129 0 0 -400.79c0,-62.2 -16.59,-109.45 -49.96,-141.69 -33.43,-32.23 -82.53,-48.38 -147,-48.38 -63.78,0 -112.41,16.15 -146.22,48.38 -33.87,32.24 -50.72,79.49 -50.72,141.69l0 400.79 -129 0zm1537.1 13.8c-96.08,0 -171.65,-20.06 -226.93,-59.85 -55.25,-39.88 -85.66,-95.63 -90.95,-166.99l127.81 0c5.29,42.15 23.71,73.25 55.31,93.24 31.54,20.05 77.85,29.97 139.36,29.97 107.56,0 161.24,-33.87 161.24,-101.37 0,-27.64 -8.32,-49.03 -24.65,-64.03 -16.61,-14.95 -44.48,-25.81 -83.66,-32.7l-150.82 -27.61c-128.31,-23.73 -192.34,-84.8 -192.34,-183.14 0,-63.84 24.15,-114.05 72.53,-150.88 48.38,-36.86 114.49,-55.27 198.09,-55.27 86.86,0 155.74,18.86 206.85,56.41 50.9,37.59 79.93,90.51 86.86,158.97l-125.54 0c-7.62,-38.49 -25.6,-66.8 -53.42,-85.24 -28.14,-18.42 -67.49,-27.62 -118.23,-27.62 -46.73,0 -83.14,8.06 -108.68,24.15 -25.81,16.15 -38.68,39.63 -38.68,70.29 0,23.71 8.27,42.38 24.86,55.69 16.34,13.63 43.07,23.79 79.93,30.66l150.89 28.77c67.45,12.24 116.97,34.13 148.58,65.67 31.54,31.54 47.19,73.75 47.19,126.67 0,67.49 -24.61,120.25 -73.69,157.84 -49.08,37.53 -119.81,56.39 -211.89,56.39zm829.79 0c-71.42,0 -133.62,-14.74 -186.54,-44.46 -52.98,-29.46 -94,-71.17 -123.27,-124.84 -29.25,-53.63 -43.76,-117.03 -43.76,-190.01 -0.69,-73 13.36,-136.39 42.63,-190.01 29.27,-53.7 70.48,-95.38 123.9,-125.1 53.24,-29.46 115.63,-44.23 187.05,-44.23 73.75,0 136.58,14.51 188.87,43.78 52.29,29.21 92.86,70.71 121.61,124.34 28.83,53.68 43.09,117.52 43.09,191.21 0.69,72.97 -13.38,136.37 -42.65,190.51 -29.19,54.12 -70.2,95.82 -123.19,125.03 -53,29.27 -115.65,43.76 -187.74,43.76zm0 -112.85c71.4,0 126.92,-21.63 166.53,-65.16 39.38,-43.32 59.18,-103.7 59.18,-181.29 0,-78.29 -19.8,-138.92 -59.18,-182.01 -39.61,-43.01 -95.13,-64.47 -166.53,-64.47 -70.73,0 -125.98,21.65 -165.86,64.97 -39.86,43.53 -59.85,103.91 -59.85,181.5 0,77.59 19.99,137.97 59.85,181.29 39.88,43.53 95.13,65.16 165.86,65.16zm877.04 111.72c-89.12,0 -158.91,-24.91 -209.56,-74.42 -50.71,-49.52 -76.02,-116.09 -76.02,-199.67l0 -429.6 129 0 0 401.96c0,62.14 16.09,109.14 48.32,140.93 32.24,32.05 79.04,47.94 140.55,47.94 65.16,0 115.82,-16.59 151.54,-50.21 35.7,-33.18 53.42,-79.93 53.42,-139.86l0 -400.76 129 0 0 557.4 66.8 0 0 133.62 -138.2 0 0 -105.99 -48.38 0c-24.61,38.47 -57.54,67.75 -99.06,87.99 -41.43,20.52 -90.51,30.66 -147.42,30.66zm696.25 -12.66l0 -557.42 -66.8 0 0 -133.6 138.2 0 0 129 48.41 0c19.11,-42.13 49.08,-75.33 89.38,-99.04 40.32,-23.73 87.51,-35.7 142.13,-35.7l56.41 0 0 110.52 -63.34 0c-69.09,0 -122.51,20.31 -160.1,61.07 -37.55,40.74 -56.41,95.57 -56.41,164.7l0 360.47 -127.87 0zm896.72 13.8c-69.83,0 -130.83,-14.74 -183.12,-44.46 -52.29,-29.46 -92.61,-71.17 -121.38,-124.84 -28.83,-53.63 -43.32,-117.03 -43.32,-190.01 0,-73 14.24,-136.39 42.63,-190.01 28.33,-53.7 68.65,-95.38 120.94,-125.1 52.23,-29.46 113.55,-44.23 184.25,-44.23 84.55,0 155,20.96 211.47,62.64 56.39,41.96 93.24,102.08 110.96,180.35l-130.14 0c-13.12,-44.46 -35.47,-77.38 -67.26,-98.59 -31.98,-20.94 -73.67,-31.54 -125.03,-31.54 -68.44,0 -121.86,21.46 -160.55,64.47 -38.91,43.09 -58.28,103.72 -58.28,182.01 0,77.59 19.36,137.97 58.28,181.29 38.68,43.53 92.11,65.16 160.55,65.16 106.62,0 172.28,-47.25 196.9,-141.69l130.14 0c-16.78,82.28 -53.61,145.17 -110.52,188.87 -56.89,43.79 -129,65.67 -216.51,65.67zm848.3 0c-72.11,0 -134.76,-14.74 -187.74,-44.46 -52.98,-29.46 -93.74,-71.42 -122.51,-125.98 -28.81,-54.58 -43.32,-118.17 -43.32,-191.2 0,-73 14.51,-136.08 43.32,-189.57 28.77,-53.19 69.09,-94.44 121.38,-123.65 52.29,-29.27 113.29,-43.78 183.14,-43.78 66.74,0 124.57,13.38 173.4,40.32 48.59,26.92 86.37,64.97 113.32,113.99 26.99,49.08 40.3,107.56 40.3,175.06l0 51.85 -550.47 0c3.93,72.11 26,128.31 66.32,168.63 40.3,40.3 94.25,60.56 161.74,60.56 46.75,0 86.35,-9.91 118.59,-29.46 32.23,-19.61 54.58,-48.38 66.82,-86.88l131.27 0c-16.78,71.42 -53.19,126.67 -108.7,165.86 -55.78,39.16 -124.66,58.72 -206.85,58.72zm-224.57 -431.87l421.51 0c-6.24,-56.89 -26.92,-100.86 -62.64,-132.47 -35.7,-31.54 -82.95,-47.19 -141.25,-47.19 -57.58,0 -105.46,15.64 -143.95,47.19 -38.47,31.61 -62.9,75.58 -73.67,132.47zm-6049.89 -1051.09l0 -1173.29c0,-56.01 13.69,-106.99 40.99,-152.8 27.38,-45.78 63.97,-82.38 109.77,-109.75 45.8,-27.32 96.7,-41.01 152.8,-41.01l867.64 0c56.09,0 107,13.69 152.8,41.01 45.8,27.36 82.76,63.97 110.77,109.75 28.01,45.8 42.08,96.79 42.08,152.8l0 1173.29 -322.06 0 0 -475.84 -836.85 0 0 475.84 -317.94 0zm317.94 -795.86l836.85 0 0 -360.97c0,0 0,0 0,0 0,0 0,0 0,0l-836.85 0c0,0 0,0 0,0 0,0 0,0 0,0l0 360.97zm3056.32 795.86l-428.71 -510.72 416.41 0 340.47 402.02 0 108.7 -328.17 0zm-1146.6 0l0 -1474.77 1171.21 0c56.07,0 106.99,13.63 152.77,41.01 45.8,27.36 82.78,64.28 110.77,110.77 28.01,46.49 42.08,97.08 42.08,151.77l0 381.53c0,54.7 -14.07,105.29 -42.08,151.79 -27.99,46.49 -64.97,83.39 -110.77,110.77 -45.78,27.32 -96.7,40.99 -152.77,40.99l-853.27 2.04 0 484.09 -317.94 0zm317.94 -806.09l836.87 0c0,0 0,0 0,0 0,0 0,0 0,0l0 -350.74c0,0 0,0 0,0 0,0 0,0 0,0l-836.87 0c0,0 0,0 0,0 0,0 0,0 0,0l0 350.74c0,0 0,0 0,0 0,0 0,0 0,0zm1895.33 806.09l0 -1173.29c0,-56.01 13.69,-106.99 41.01,-152.8 27.38,-45.78 63.97,-82.38 109.77,-109.75 45.8,-27.32 96.7,-41.01 152.8,-41.01l867.64 0c56.09,0 107,13.69 152.8,41.01 45.8,27.36 82.76,63.97 110.78,109.75 28.01,45.8 42.06,96.79 42.06,152.8l0 1173.29 -322.03 0 0 -475.84 -836.87 0 0 475.84 -317.94 0zm317.94 -795.86l836.87 0 0 -360.97c0,0 0,0 0,0 0,0 0,0 0,0l-836.87 0c0,0 0,0 0,0 0,0 0,0 0,0l0 360.97zm2213.3 795.86c-56.09,0 -107,-13.69 -152.8,-41.01 -45.8,-27.36 -82.38,-63.97 -109.77,-109.75 -27.3,-45.8 -40.99,-96.73 -40.99,-152.8l0 -869.74c0,-56.01 13.69,-106.99 40.99,-152.8 27.38,-45.78 63.97,-82.38 109.77,-109.75 45.8,-27.32 96.7,-41.01 152.8,-41.01l867.66 0c56.07,0 106.97,13.69 152.77,41.01 45.8,27.36 82.76,63.97 110.78,109.75 28.01,45.8 42.08,96.79 42.08,152.8l0 139.48 -322.06 0 0 -123.02c0,0 0,0 0,0 0,0 0,0 0,0l-836.85 0c0,0 0,0 0,0 0,0 0,0 0,0l0 836.87c0,0 0,0 0,0 0,0 0,0 0,0l836.85 0c0,0 0,0 0,0 0,0 0,0 0,0l0 -221.55 -320.02 0 0 -319.96 642.08 0 0 557.91c0,56.07 -14.07,106.99 -42.08,152.8 -28.01,45.78 -64.97,82.38 -110.78,109.75 -45.8,27.32 -96.7,41.01 -152.77,41.01l-867.66 0zm1919.95 0l0 -1476.85 1363.99 0 0 320.02 -1041.96 0 0 258.38 838.89 0 0 320.04 -838.89 0 0 258.45 1041.96 0 0 319.96 -1363.99 0zm2045.11 0l0 -1476.85 328.15 0 500.51 596.9 498.41 -596.9 330.25 0 0 1476.85 -319.96 0 0 -990.72 -508.7 607.17 -510.72 -605.09 0 988.64 -317.94 0z"/>
 </g>
</svg>
