<?xml version="1.0" encoding="UTF-8"?>
<!DOCTYPE svg PUBLIC "-//W3C//DTD SVG 1.1//EN" "http://www.w3.org/Graphics/SVG/1.1/DTD/svg11.dtd">
<!-- Creator: CorelDRAW -->
<svg xmlns="http://www.w3.org/2000/svg" xml:space="preserve" width="210mm" height="297mm" version="1.1" style="shape-rendering:geometricPrecision; text-rendering:geometricPrecision; image-rendering:optimizeQuality; fill-rule:evenodd; clip-rule:evenodd"
viewBox="0 0 21000 14633.22"
 xmlns:xlink="http://www.w3.org/1999/xlink"
 xmlns:xodm="http://www.corel.com/coreldraw/odm/2003">
 <defs>
  <style type="text/css">
   <![CDATA[
    .fil0 {fill:#212121;fill-rule:nonzero}
   ]]>
  </style>
 </defs>
 <g id="Camada_x0020_1">
  <metadata id="CorelCorpID_0Corel-Layer"/>
  <path class="fil0" d="M415.11 12160.53c-79.49,0 -151.62,-19.4 -216.53,-58.11 -64.91,-38.81 -116.76,-90.66 -155.57,-155.57 -38.7,-64.89 -58.11,-137.05 -58.11,-216.53l0 -1232.57c0,-79.38 19.4,-151.62 58.11,-216.53 38.81,-64.91 90.66,-116.76 155.57,-155.55 64.91,-38.72 137.05,-58.13 216.53,-58.13l1229.63 0c79.46,0 151.62,19.4 216.53,58.13 64.89,38.79 117.28,90.64 156.98,155.55 39.71,64.91 59.64,137.15 59.64,216.53l0 197.67 -456.39 0 0 -174.34c0,0 0,0 0,0 0,0 0,0 0,0l-1186 0c0,0 0,0 0,0 0,0 0,0 0,0l0 1186.02c0,0 0,0 0,0 0,0 0,0 0,0l1186 0c0,0 0,0 0,0 0,0 0,0 0,0l0 -313.99 -453.54 0 0 -453.43 909.93 0 0 790.65c0,79.49 -19.93,151.64 -59.64,216.53 -39.69,64.91 -92.08,116.76 -156.98,155.57 -64.91,38.7 -137.07,58.11 -216.53,58.11l-1229.63 0zm10069.86 -12159.42c2320.06,0 4200.8,1880.74 4200.8,4200.71 0,2320.06 -1880.74,4200.8 -4200.8,4200.8 -2320.08,0 -4200.82,-1880.74 -4200.82,-4200.8 0,-2319.98 1880.74,-4200.71 4200.82,-4200.71zm-355.3 6915.66l1015.52 0c838.87,0 1525.29,-686.43 1525.29,-1525.27 0,-489.3 -16.36,-998.36 -480.98,-1475.04 -286.99,-294.32 -672.92,-465.61 -1086.6,-458.2l-2072.32 37.19c-505.74,-29.76 -879.19,408.22 -870.41,895.46 7.77,433.69 319.96,826.79 753.56,864.59l2220.73 -38.35c1516.26,-26.1 1185.47,1458.41 1.07,1458.41l-1005.86 0c-1230.16,0 -2243.43,-980.28 -2297.17,-2197.94 0,-754.99 660.85,-1317.41 1393.85,-1317.41 755.26,0 1184.84,2.58 1939.94,2.58 457.55,0 882.4,-341.25 882.4,-820.89 0,-476.41 -421.36,-820.97 -882.4,-820.97l-35.41 0c-472.94,0 -619.92,1.07 -1093.03,1.78 -1666.08,60 -2518,1431.51 -2446.02,2971.98 63.19,1351.77 1189.92,2422.08 2537.83,2422.08zm-1117.33 -3064.43c288.04,0 521.56,233.52 521.56,521.49 0,288.04 -233.52,521.56 -521.56,521.56 -288.06,0 -521.49,-233.52 -521.49,-521.56 0,-287.97 233.44,-521.49 521.49,-521.49zm2142.15 -2037.27c287.95,0 521.47,233.5 521.47,521.47 0,288.06 -233.52,521.58 -521.47,521.58 -288.06,0 -521.58,-233.52 -521.58,-521.58 0,-287.97 233.52,-521.47 521.58,-521.47zm-6383.1 12447.12c-101.22,0 -189.36,-20.92 -264.37,-63.02 -75.1,-41.75 -133.2,-100.84 -174.7,-176.93 -41.48,-76 -62.03,-165.84 -62.03,-269.28 -0.99,-103.45 18.94,-193.28 60.44,-269.28 41.48,-76.08 99.86,-135.18 175.58,-177.28 75.45,-41.75 163.86,-62.66 265.08,-62.66 104.5,0 193.56,20.56 267.67,62.03 74.11,41.39 131.59,100.23 172.37,176.21 40.85,76.08 61.05,166.55 61.05,270.98 0.99,103.45 -18.94,193.28 -60.44,270 -41.39,76.69 -99.5,135.79 -174.59,177.2 -75.1,41.48 -163.86,62.03 -266.05,62.03zm0 -159.94c101.2,0 179.87,-30.66 236.02,-92.36 55.78,-61.42 83.85,-146.98 83.85,-256.94 0,-110.94 -28.08,-196.88 -83.85,-257.92 -56.15,-60.98 -134.82,-91.37 -236.02,-91.37 -100.23,0 -178.54,30.66 -235.05,92.08 -56.49,61.68 -84.84,147.25 -84.84,257.21 0,109.96 28.35,195.51 84.84,256.94 56.51,61.7 134.82,92.36 235.05,92.36zm887.12 532.12l0 -1181.71 -94.58 0 0 -189.36 195.78 0 0 150.19 68.59 0c32.61,-55.52 77.41,-97.63 133.83,-126.67 56.49,-28.71 124.09,-43.09 202.4,-43.09 98.87,0 182.83,20.56 251.39,62.03 68.48,41.39 121.06,100.23 157.63,176.21 36.2,76.08 54.54,166.55 54.54,270.98 0,104.41 -17.98,194.9 -53.91,270.98 -35.87,75.98 -87.09,134.8 -154.06,176.21 -66.86,41.48 -146.87,62.03 -239.23,62.03 -77.43,0 -144.65,-15.64 -202.4,-46.66 -57.86,-30.66 -101.22,-74.74 -130.62,-131.25l-6.53 0 0 550.09 -182.83 0zm478.3 -528.91c97.9,0 173.99,-30.93 227.81,-92.97 53.91,-62.06 80.64,-148.6 80.64,-259.54 0,-110.94 -26.73,-197.48 -80.64,-259.54 -53.82,-62.03 -129.91,-92.97 -227.81,-92.97 -89.12,0 -160.92,25.39 -214.47,76.69 -53.91,51.24 -81,119.09 -81,204.01l0 143.58c0,84.94 27.09,152.8 81,204.01 53.55,51.32 125.35,76.71 214.47,76.71zm1278.9 156.72c-102.19,0 -190.97,-20.92 -266.07,-63.02 -75.1,-41.75 -132.85,-101.2 -173.61,-178.54 -40.87,-77.32 -61.42,-167.45 -61.42,-270.98 0,-103.42 20.56,-192.82 61.42,-268.65 40.76,-75.35 97.88,-133.83 172.01,-175.22 74.11,-41.47 160.57,-62.03 259.52,-62.03 94.6,0 176.57,18.94 245.76,57.12 68.86,38.18 122.41,92.09 160.57,161.55 38.28,69.55 57.14,152.42 57.14,248.09l0 73.48 -780.13 0c5.54,102.19 36.83,181.84 93.98,238.98 57.12,57.12 133.56,85.83 229.21,85.83 66.26,0 122.39,-14.05 168.08,-41.75 45.68,-27.8 77.32,-68.59 94.67,-123.12l186.04 0c-23.77,101.22 -75.35,179.53 -154.03,235.05 -79.02,55.5 -176.65,83.22 -293.14,83.22zm-318.28 -612.05l597.39 0c-8.86,-80.64 -38.18,-142.95 -88.79,-187.74 -50.59,-44.71 -117.56,-66.86 -200.15,-66.86 -81.63,0 -149.5,22.15 -204.01,66.86 -54.54,44.79 -89.15,107.1 -104.43,187.74zm1158.11 592.47l0 -789.96 -94.58 0 0 -189.36 195.78 0 0 150.19 68.59 0c33.6,-54.54 80.01,-96.01 138.75,-125.08 58.74,-28.69 127.93,-43.09 207.31,-43.09 126.34,0 225.83,36.22 298.7,108.36 72.76,72.51 109.33,169.16 109.33,289.93l0 599 -182.83 0 0 -567.97c0,-88.16 -23.5,-155.13 -70.79,-200.8 -47.4,-45.7 -116.95,-68.57 -208.32,-68.57 -90.38,0 -159.31,22.87 -207.23,68.57 -48.01,45.68 -71.88,112.64 -71.88,200.8l0 567.97 -182.83 0zm2178.37 19.57c-136.16,0 -243.26,-28.43 -321.59,-84.84 -78.31,-56.51 -121.4,-135.53 -128.9,-236.65l181.12 0c7.5,59.72 33.6,103.8 78.39,132.13 44.71,28.43 110.33,42.46 197.48,42.46 152.44,0 228.52,-48.01 228.52,-143.66 0,-39.17 -11.8,-69.47 -34.97,-90.74 -23.5,-21.19 -63.02,-36.56 -118.55,-46.31l-213.76 -39.16c-181.84,-33.62 -272.58,-120.16 -272.58,-259.54 0,-90.47 34.23,-161.64 102.82,-213.84 68.57,-52.21 162.27,-78.31 280.71,-78.31 123.12,0 220.75,26.73 293.16,79.93 72.14,53.28 113.27,128.29 123.1,225.29l-177.91 0c-10.81,-54.54 -36.29,-94.67 -75.73,-120.79 -39.86,-26.1 -95.66,-39.14 -167.54,-39.14 -66.23,0 -117.83,11.45 -154.03,34.23 -36.56,22.89 -54.81,56.15 -54.81,99.6 0,33.62 11.72,60.08 35.24,78.94 23.14,19.3 61.05,33.71 113.27,43.45l213.84 40.76c95.57,17.35 165.75,48.36 210.55,93.07 44.69,44.71 66.86,104.52 66.86,179.53 0,95.65 -34.86,170.39 -104.41,223.67 -69.55,53.19 -169.78,79.93 -300.3,79.93zm1175.98 0c-101.2,0 -189.36,-20.92 -264.35,-63.02 -75.1,-41.75 -133.22,-100.84 -174.7,-176.93 -41.47,-76 -62.05,-165.84 -62.05,-269.28 -0.97,-103.45 18.96,-193.28 60.44,-269.28 41.5,-76.08 99.88,-135.18 175.6,-177.28 75.45,-41.75 163.86,-62.66 265.06,-62.66 104.52,0 193.56,20.56 267.67,62.03 74.13,41.39 131.61,100.23 172.37,176.21 40.87,76.08 61.07,166.55 61.07,270.98 0.99,103.45 -18.96,193.28 -60.44,270 -41.39,76.69 -99.5,135.79 -174.59,177.2 -75.1,41.48 -163.88,62.03 -266.07,62.03zm0 -159.94c101.2,0 179.89,-30.66 236.02,-92.36 55.8,-61.42 83.87,-146.98 83.87,-256.94 0,-110.94 -28.08,-196.88 -83.87,-257.92 -56.13,-60.98 -134.82,-91.37 -236.02,-91.37 -100.21,0 -178.52,30.66 -235.03,92.08 -56.51,61.68 -84.84,147.25 -84.84,257.21 0,109.96 28.33,195.51 84.84,256.94 56.51,61.7 134.82,92.36 235.03,92.36zm1242.95 158.32c-126.32,0 -225.2,-35.3 -296.98,-105.48 -71.88,-70.18 -107.73,-164.49 -107.73,-282.95l0 -608.83 182.83 0 0 569.67c0,88.05 22.81,154.66 68.48,199.73 45.68,45.4 112.01,67.93 199.19,67.93 92.36,0 164.14,-23.5 214.75,-71.17 50.61,-47.02 75.73,-113.25 75.73,-198.2l0 -567.97 182.83 0 0 789.96 94.67 0 0 189.36 -195.87 0 0 -150.19 -68.59 0c-34.86,54.52 -81.52,96.01 -140.36,124.7 -58.72,29.06 -128.29,43.45 -208.93,43.45zm986.73 -17.95l0 -789.96 -94.67 0 0 -189.36 195.89 0 0 182.83 68.57 0c27.09,-59.72 69.55,-106.74 126.67,-140.36 57.14,-33.6 124,-50.59 201.43,-50.59l79.93 0 0 156.62 -89.75 0c-97.9,0 -173.63,28.79 -226.91,86.54 -53.19,57.75 -79.93,135.45 -79.93,233.44l0 510.85 -181.23 0zm1270.86 19.57c-98.97,0 -185.43,-20.92 -259.54,-63.02 -74.11,-41.75 -131.25,-100.84 -172.01,-176.93 -40.84,-76 -61.42,-165.84 -61.42,-269.28 0,-103.45 20.22,-193.28 60.44,-269.28 40.15,-76.08 97.27,-135.18 171.38,-177.28 74.03,-41.75 160.92,-62.66 261.16,-62.66 119.78,0 219.66,29.67 299.67,88.77 79.93,59.45 132.13,144.65 157.25,255.61l-184.42 0c-18.61,-63.04 -50.25,-109.7 -95.3,-139.73 -45.34,-29.69 -104.43,-44.71 -177.2,-44.71 -97,0 -172.72,30.39 -227.53,91.37 -55.17,61.05 -82.61,146.98 -82.61,257.92 0,109.96 27.45,195.51 82.61,256.94 54.81,61.7 130.54,92.36 227.53,92.36 151.07,0 244.15,-66.97 279.03,-200.8l184.42 0c-23.77,116.59 -75.98,205.72 -156.62,267.67 -80.64,62.06 -182.83,93.07 -306.83,93.07zm1202.19 0c-102.19,0 -190.97,-20.92 -266.07,-63.02 -75.1,-41.75 -132.85,-101.2 -173.61,-178.54 -40.87,-77.32 -61.43,-167.45 -61.43,-270.98 0,-103.42 20.56,-192.82 61.43,-268.65 40.76,-75.35 97.88,-133.83 172.01,-175.22 74.11,-41.47 160.57,-62.03 259.52,-62.03 94.58,0 176.57,18.94 245.76,57.12 68.84,38.18 122.41,92.09 160.57,161.55 38.26,69.55 57.14,152.42 57.14,248.09l0 73.48 -780.13 0c5.54,102.19 36.83,181.84 93.98,238.98 57.12,57.12 133.56,85.83 229.22,85.83 66.25,0 122.39,-14.05 168.08,-41.75 45.67,-27.8 77.32,-68.59 94.67,-123.12l186.04 0c-23.77,101.22 -75.37,179.53 -154.03,235.05 -79.02,55.5 -176.65,83.22 -293.14,83.22zm-318.28 -612.05l597.39 0c-8.86,-80.64 -38.18,-142.95 -88.79,-187.74 -50.59,-44.71 -117.56,-66.86 -200.17,-66.86 -81.61,0 -149.48,22.15 -204.02,66.86 -54.54,44.79 -89.12,107.1 -104.41,187.74zm-12858.28 -1489.61l0 -1662.78c0,-79.38 19.38,-151.62 58.11,-216.53 38.79,-64.91 90.66,-116.76 155.55,-155.55 64.91,-38.72 137.07,-58.13 216.53,-58.13l1229.63 0c79.48,0 151.62,19.4 216.53,58.13 64.91,38.79 117.31,90.64 157,155.55 39.69,64.91 59.62,137.15 59.62,216.53l0 1662.78 -456.39 0 0 -674.35 -1186 0 0 674.35 -450.58 0zm450.58 -1127.89l1186 0 0 -511.56c0,0 0,0 0,0 0,0 0,0 0,0l-1186 0c0,0 0,0 0,0 0,0 0,0 0,0l0 511.56zm4331.42 1127.89l-607.57 -723.79 590.14 0 482.5 569.75 0 154.04 -465.07 0zm-1624.96 0l0 -2090.02 1659.82 0c79.49,0 151.64,19.3 216.53,58.11 64.91,38.81 117.31,91.1 157,157 39.69,65.88 59.64,137.59 59.64,215.1l0 540.69c0,77.51 -19.95,149.23 -59.64,215.1 -39.69,65.9 -92.09,118.19 -157,157 -64.89,38.7 -137.05,58.11 -216.53,58.11l-1209.24 2.86 0 686.07 -450.58 0zm450.58 -1142.38l1186.02 0c0,0 0,0 0,0 0,0 0,0 0,0l0 -497.07c0,0 0,0 0,0 0,0 0,0 0,0l-1186.02 0c0,0 0,0 0,0 0,0 0,0 0,0l0 497.07c0,0 0,0 0,0 0,0 0,0 0,0zm2686.09 1142.38l0 -1662.78c0,-79.38 19.38,-151.62 58.11,-216.53 38.79,-64.91 90.66,-116.76 155.55,-155.55 64.91,-38.72 137.07,-58.13 216.53,-58.13l1229.63 0c79.48,0 151.62,19.4 216.53,58.13 64.91,38.79 117.31,90.64 157,155.55 39.69,64.91 59.62,137.15 59.62,216.53l0 1662.78 -456.39 0 0 -674.35 -1186 0 0 674.35 -450.58 0zm450.58 -1127.89l1186 0 0 -511.56c0,0 0,0 0,0 0,0 0,0 0,0l-1186 0c0,0 0,0 0,0 0,0 0,0 0,0l0 511.56zm3136.66 1127.89c-79.48,0 -151.64,-19.4 -216.53,-58.11 -64.91,-38.81 -116.76,-90.66 -155.57,-155.57 -38.7,-64.89 -58.11,-137.05 -58.11,-216.53l0 -1232.57c0,-79.38 19.4,-151.62 58.11,-216.53 38.81,-64.91 90.66,-116.76 155.57,-155.55 64.89,-38.72 137.05,-58.13 216.53,-58.13l1229.61 0c79.49,0 151.64,19.4 216.53,58.13 64.91,38.79 117.31,90.64 157,155.55 39.69,64.91 59.64,137.15 59.64,216.53l0 197.67 -456.39 0 0 -174.34c0,0 0,0 0,0 0,0 0,0 0,0l-1186.02 0c0,0 0,0 0,0 0,0 0,0 0,0l0 1186.02c0,0 0,0 0,0 0,0 0,0 0,0l1186.02 0c0,0 0,0 0,0 0,0 0,0 0,0l0 -313.99 -453.54 0 0 -453.43 909.93 0 0 790.65c0,79.49 -19.95,151.64 -59.64,216.53 -39.69,64.91 -92.09,116.76 -157,155.57 -64.89,38.7 -137.05,58.11 -216.53,58.11l-1229.61 0zm2720.93 0l0 -2092.99 1933.05 0 0 453.54 -1476.66 0 0 366.2 1188.87 0 0 453.54 -1188.87 0 0 366.28 1476.66 0 0 453.43 -1933.05 0zm2898.32 0l0 -2092.99 465.07 0 709.32 845.92 706.36 -845.92 468.03 0 0 2092.99 -453.45 0 0 -1404.04 -720.93 860.48 -723.79 -857.53 0 1401.1 -450.6 0z"/>
 </g>
</svg>
